<?xml version="1.0" encoding="UTF-8" standalone="no"?>
<!DOCTYPE svg PUBLIC "-//W3C//DTD SVG 1.1//EN"
 "http://www.w3.org/Graphics/SVG/1.1/DTD/svg11.dtd">
<!-- Generated by graphviz version 2.43.0 (0)
 -->
<!-- Title: G Pages: 1 -->
<svg width="407pt" height="692pt"
 viewBox="0.00 0.00 407.26 692.00" xmlns="http://www.w3.org/2000/svg" xmlns:xlink="http://www.w3.org/1999/xlink">
<g id="graph0" class="graph" transform="scale(1 1) rotate(0) translate(4 688)">
<title>G</title>
<polygon fill="white" stroke="transparent" points="-4,4 -4,-688 403.26,-688 403.26,4 -4,4"/>
<!-- n2 -->
<g id="node1" class="node">
<title>n2</title>
<ellipse fill="none" stroke="red" cx="169" cy="-18" rx="27" ry="18"/>
<text text-anchor="middle" x="169" y="-14.3" font-family="Times,serif" font-size="14.00">all</text>
</g>
<!-- n5 -->
<g id="node2" class="node">
<title>n5</title>
<ellipse fill="none" stroke="red" cx="249" cy="-666" rx="27" ry="18"/>
<text text-anchor="middle" x="249" y="-662.3" font-family="Times,serif" font-size="14.00">n1</text>
</g>
<!-- n6 -->
<g id="node12" class="node">
<title>n6</title>
<ellipse fill="none" stroke="red" cx="339" cy="-594" rx="27" ry="18"/>
<text text-anchor="middle" x="339" y="-590.3" font-family="Times,serif" font-size="14.00">n2</text>
</g>
<!-- n5&#45;&gt;n6 -->
<g id="edge24" class="edge">
<title>n5&#45;&gt;n6</title>
<path fill="none" stroke="black" d="M265.93,-651.83C279.5,-641.27 298.76,-626.3 314.09,-614.37"/>
<polygon fill="black" stroke="black" points="316.4,-617.01 322.15,-608.11 312.11,-611.48 316.4,-617.01"/>
</g>
<!-- n4 -->
<g id="node13" class="node">
<title>n4</title>
<ellipse fill="none" stroke="red" cx="213" cy="-594" rx="27" ry="18"/>
<text text-anchor="middle" x="213" y="-590.3" font-family="Times,serif" font-size="14.00">n3</text>
</g>
<!-- n5&#45;&gt;n4 -->
<g id="edge25" class="edge">
<title>n5&#45;&gt;n4</title>
<path fill="none" stroke="black" d="M240.65,-648.76C236.29,-640.28 230.85,-629.71 225.96,-620.2"/>
<polygon fill="black" stroke="black" points="228.99,-618.44 221.3,-611.15 222.77,-621.64 228.99,-618.44"/>
</g>
<!-- n12 -->
<g id="node3" class="node">
<title>n12</title>
<ellipse fill="none" stroke="red" cx="186" cy="-306" rx="28.7" ry="18"/>
<text text-anchor="middle" x="186" y="-302.3" font-family="Times,serif" font-size="14.00">n10</text>
</g>
<!-- n11 -->
<g id="node4" class="node">
<title>n11</title>
<ellipse fill="none" stroke="red" cx="150" cy="-234" rx="28.7" ry="18"/>
<text text-anchor="middle" x="150" y="-230.3" font-family="Times,serif" font-size="14.00">n11</text>
</g>
<!-- n12&#45;&gt;n11 -->
<g id="edge13" class="edge">
<title>n12&#45;&gt;n11</title>
<path fill="none" stroke="black" d="M177.65,-288.76C173.35,-280.4 168.01,-270.02 163.17,-260.61"/>
<polygon fill="black" stroke="black" points="166.24,-258.93 158.55,-251.63 160.02,-262.13 166.24,-258.93"/>
</g>
<!-- n15 -->
<g id="node5" class="node">
<title>n15</title>
<ellipse fill="none" stroke="red" cx="207" cy="-162" rx="28.7" ry="18"/>
<text text-anchor="middle" x="207" y="-158.3" font-family="Times,serif" font-size="14.00">n12</text>
</g>
<!-- n12&#45;&gt;n15 -->
<g id="edge14" class="edge">
<title>n12&#45;&gt;n15</title>
<path fill="none" stroke="black" d="M188.53,-287.87C192.11,-263.67 198.69,-219.21 202.95,-190.39"/>
<polygon fill="black" stroke="black" points="206.46,-190.59 204.46,-180.19 199.53,-189.57 206.46,-190.59"/>
</g>
<!-- n11&#45;&gt;n2 -->
<g id="edge1" class="edge">
<title>n11&#45;&gt;n2</title>
<path fill="none" stroke="black" d="M151.52,-215.85C154.81,-178.83 162.59,-91.18 166.57,-46.39"/>
<polygon fill="black" stroke="black" points="170.07,-46.5 167.47,-36.23 163.1,-45.88 170.07,-46.5"/>
</g>
<!-- n11&#45;&gt;n15 -->
<g id="edge15" class="edge">
<title>n11&#45;&gt;n15</title>
<path fill="none" stroke="black" d="M162.65,-217.46C170.1,-208.31 179.68,-196.55 188.02,-186.31"/>
<polygon fill="black" stroke="black" points="190.78,-188.46 194.39,-178.49 185.36,-184.04 190.78,-188.46"/>
</g>
<!-- n15&#45;&gt;n2 -->
<g id="edge2" class="edge">
<title>n15&#45;&gt;n2</title>
<path fill="none" stroke="black" d="M200.43,-144.48C196.47,-134.11 191.53,-120.41 188,-108 182.13,-87.39 177.15,-63.64 173.76,-45.86"/>
<polygon fill="black" stroke="black" points="177.18,-45.09 171.91,-35.9 170.3,-46.37 177.18,-45.09"/>
</g>
<!-- n20 -->
<g id="node11" class="node">
<title>n20</title>
<ellipse fill="none" stroke="red" cx="226" cy="-90" rx="28.7" ry="18"/>
<text text-anchor="middle" x="226" y="-86.3" font-family="Times,serif" font-size="14.00">n18</text>
</g>
<!-- n15&#45;&gt;n20 -->
<g id="edge22" class="edge">
<title>n15&#45;&gt;n20</title>
<path fill="none" stroke="black" d="M211.6,-144.05C213.75,-136.14 216.35,-126.54 218.76,-117.69"/>
<polygon fill="black" stroke="black" points="222.2,-118.36 221.44,-107.79 215.45,-116.52 222.2,-118.36"/>
</g>
<!-- n14 -->
<g id="node6" class="node">
<title>n14</title>
<ellipse fill="none" stroke="red" cx="258" cy="-378" rx="28.7" ry="18"/>
<text text-anchor="middle" x="258" y="-374.3" font-family="Times,serif" font-size="14.00">n13</text>
</g>
<!-- n14&#45;&gt;n12 -->
<g id="edge10" class="edge">
<title>n14&#45;&gt;n12</title>
<path fill="none" stroke="black" d="M243.08,-362.5C233.04,-352.73 219.62,-339.69 208.32,-328.7"/>
<polygon fill="black" stroke="black" points="210.51,-325.95 200.9,-321.49 205.63,-330.97 210.51,-325.95"/>
</g>
<!-- n17 -->
<g id="node7" class="node">
<title>n17</title>
<ellipse fill="none" stroke="red" cx="263" cy="-306" rx="28.7" ry="18"/>
<text text-anchor="middle" x="263" y="-302.3" font-family="Times,serif" font-size="14.00">n14</text>
</g>
<!-- n14&#45;&gt;n17 -->
<g id="edge18" class="edge">
<title>n14&#45;&gt;n17</title>
<path fill="none" stroke="black" d="M259.24,-359.7C259.79,-351.98 260.45,-342.71 261.06,-334.11"/>
<polygon fill="black" stroke="black" points="264.56,-334.33 261.78,-324.1 257.57,-333.83 264.56,-334.33"/>
</g>
<!-- n19 -->
<g id="node8" class="node">
<title>n19</title>
<ellipse fill="none" stroke="red" cx="340" cy="-162" rx="28.7" ry="18"/>
<text text-anchor="middle" x="340" y="-158.3" font-family="Times,serif" font-size="14.00">n15</text>
</g>
<!-- n14&#45;&gt;n19 -->
<g id="edge19" class="edge">
<title>n14&#45;&gt;n19</title>
<path fill="none" stroke="black" d="M272.77,-362.5C282.16,-352.5 293.85,-338.44 301,-324 322.66,-280.23 332.75,-223.69 337.08,-190.58"/>
<polygon fill="black" stroke="black" points="340.6,-190.65 338.34,-180.3 333.65,-189.8 340.6,-190.65"/>
</g>
<!-- n16 -->
<g id="node9" class="node">
<title>n16</title>
<ellipse fill="none" stroke="red" cx="264" cy="-234" rx="28.7" ry="18"/>
<text text-anchor="middle" x="264" y="-230.3" font-family="Times,serif" font-size="14.00">n16</text>
</g>
<!-- n17&#45;&gt;n16 -->
<g id="edge20" class="edge">
<title>n17&#45;&gt;n16</title>
<path fill="none" stroke="black" d="M263.25,-287.7C263.36,-279.98 263.49,-270.71 263.61,-262.11"/>
<polygon fill="black" stroke="black" points="267.11,-262.15 263.76,-252.1 260.11,-262.05 267.11,-262.15"/>
</g>
<!-- n18 -->
<g id="node10" class="node">
<title>n18</title>
<ellipse fill="none" stroke="red" cx="340" cy="-90" rx="28.7" ry="18"/>
<text text-anchor="middle" x="340" y="-86.3" font-family="Times,serif" font-size="14.00">n17</text>
</g>
<!-- n19&#45;&gt;n18 -->
<g id="edge21" class="edge">
<title>n19&#45;&gt;n18</title>
<path fill="none" stroke="black" d="M340,-143.7C340,-135.98 340,-126.71 340,-118.11"/>
<polygon fill="black" stroke="black" points="343.5,-118.1 340,-108.1 336.5,-118.1 343.5,-118.1"/>
</g>
<!-- n19&#45;&gt;n20 -->
<g id="edge23" class="edge">
<title>n19&#45;&gt;n20</title>
<path fill="none" stroke="black" d="M320.14,-148.81C302.03,-137.68 275.05,-121.12 254.61,-108.57"/>
<polygon fill="black" stroke="black" points="256.37,-105.54 246.01,-103.29 252.7,-111.5 256.37,-105.54"/>
</g>
<!-- n16&#45;&gt;n2 -->
<g id="edge3" class="edge">
<title>n16&#45;&gt;n2</title>
<path fill="none" stroke="black" d="M269.23,-216.04C277.73,-185 291.03,-118.04 264,-72 250.98,-49.83 224.94,-36.25 203.41,-28.39"/>
<polygon fill="black" stroke="black" points="204.49,-25.06 193.9,-25.18 202.25,-31.7 204.49,-25.06"/>
</g>
<!-- n16&#45;&gt;n15 -->
<g id="edge16" class="edge">
<title>n16&#45;&gt;n15</title>
<path fill="none" stroke="black" d="M251.35,-217.46C243.9,-208.31 234.32,-196.55 225.98,-186.31"/>
<polygon fill="black" stroke="black" points="228.64,-184.04 219.61,-178.49 223.22,-188.46 228.64,-184.04"/>
</g>
<!-- n18&#45;&gt;n2 -->
<g id="edge4" class="edge">
<title>n18&#45;&gt;n2</title>
<path fill="none" stroke="black" d="M316.58,-79.41C286.53,-67.11 234.27,-45.72 200.68,-31.97"/>
<polygon fill="black" stroke="black" points="201.9,-28.69 191.32,-28.14 199.25,-35.17 201.9,-28.69"/>
</g>
<!-- n20&#45;&gt;n2 -->
<g id="edge5" class="edge">
<title>n20&#45;&gt;n2</title>
<path fill="none" stroke="black" d="M213.35,-73.46C205.9,-64.31 196.32,-52.55 187.98,-42.31"/>
<polygon fill="black" stroke="black" points="190.64,-40.04 181.61,-34.49 185.22,-44.46 190.64,-40.04"/>
</g>
<!-- n6&#45;&gt;n2 -->
<g id="edge6" class="edge">
<title>n6&#45;&gt;n2</title>
<path fill="none" stroke="black" d="M350.18,-577.25C367.04,-551.92 397,-500 397,-451 397,-451 397,-451 397,-161 397,-120.55 406.05,-101.14 378,-72 354.39,-47.48 258.84,-31.05 205.48,-23.59"/>
<polygon fill="black" stroke="black" points="205.79,-20.1 195.41,-22.22 204.84,-27.03 205.79,-20.1"/>
</g>
<!-- n4&#45;&gt;n14 -->
<g id="edge17" class="edge">
<title>n4&#45;&gt;n14</title>
<path fill="none" stroke="black" d="M216.61,-575.85C224.43,-538.66 242.99,-450.37 252.37,-405.77"/>
<polygon fill="black" stroke="black" points="255.81,-406.44 254.44,-395.94 248.96,-405 255.81,-406.44"/>
</g>
<!-- n3 -->
<g id="node14" class="node">
<title>n3</title>
<ellipse fill="none" stroke="red" cx="56" cy="-522" rx="27" ry="18"/>
<text text-anchor="middle" x="56" y="-518.3" font-family="Times,serif" font-size="14.00">n4</text>
</g>
<!-- n4&#45;&gt;n3 -->
<g id="edge26" class="edge">
<title>n4&#45;&gt;n3</title>
<path fill="none" stroke="black" d="M191.17,-583.27C164.18,-571.23 118.05,-550.67 87.3,-536.95"/>
<polygon fill="black" stroke="black" points="88.46,-533.64 77.9,-532.76 85.61,-540.03 88.46,-533.64"/>
</g>
<!-- n9 -->
<g id="node15" class="node">
<title>n9</title>
<ellipse fill="none" stroke="red" cx="186" cy="-522" rx="27" ry="18"/>
<text text-anchor="middle" x="186" y="-518.3" font-family="Times,serif" font-size="14.00">n5</text>
</g>
<!-- n4&#45;&gt;n9 -->
<g id="edge27" class="edge">
<title>n4&#45;&gt;n9</title>
<path fill="none" stroke="black" d="M206.6,-576.41C203.49,-568.34 199.67,-558.43 196.17,-549.35"/>
<polygon fill="black" stroke="black" points="199.4,-548.03 192.54,-539.96 192.87,-550.55 199.4,-548.03"/>
</g>
<!-- n3&#45;&gt;n2 -->
<g id="edge7" class="edge">
<title>n3&#45;&gt;n2</title>
<path fill="none" stroke="black" d="M45.2,-505.19C28.93,-479.79 0,-427.76 0,-379 0,-379 0,-379 0,-161 0,-90.91 86.26,-48.49 135.53,-29.98"/>
<polygon fill="black" stroke="black" points="136.94,-33.19 145.14,-26.49 134.55,-26.61 136.94,-33.19"/>
</g>
<!-- n8 -->
<g id="node16" class="node">
<title>n8</title>
<ellipse fill="none" stroke="red" cx="113" cy="-450" rx="27" ry="18"/>
<text text-anchor="middle" x="113" y="-446.3" font-family="Times,serif" font-size="14.00">n6</text>
</g>
<!-- n9&#45;&gt;n8 -->
<g id="edge28" class="edge">
<title>n9&#45;&gt;n8</title>
<path fill="none" stroke="black" d="M171.23,-506.83C160.84,-496.87 146.76,-483.37 135.04,-472.14"/>
<polygon fill="black" stroke="black" points="137.39,-469.54 127.75,-465.14 132.55,-474.59 137.39,-469.54"/>
</g>
<!-- n13 -->
<g id="node17" class="node">
<title>n13</title>
<ellipse fill="none" stroke="red" cx="186" cy="-450" rx="27" ry="18"/>
<text text-anchor="middle" x="186" y="-446.3" font-family="Times,serif" font-size="14.00">n7</text>
</g>
<!-- n9&#45;&gt;n13 -->
<g id="edge29" class="edge">
<title>n9&#45;&gt;n13</title>
<path fill="none" stroke="black" d="M186,-503.7C186,-495.98 186,-486.71 186,-478.11"/>
<polygon fill="black" stroke="black" points="189.5,-478.1 186,-468.1 182.5,-478.1 189.5,-478.1"/>
</g>
<!-- n7 -->
<g id="node18" class="node">
<title>n7</title>
<ellipse fill="none" stroke="red" cx="55" cy="-306" rx="27" ry="18"/>
<text text-anchor="middle" x="55" y="-302.3" font-family="Times,serif" font-size="14.00">n8</text>
</g>
<!-- n8&#45;&gt;n7 -->
<g id="edge30" class="edge">
<title>n8&#45;&gt;n7</title>
<path fill="none" stroke="black" d="M100.4,-433.64C92.65,-423.5 83.07,-409.61 77,-396 68.11,-376.07 62.43,-351.96 59.08,-333.87"/>
<polygon fill="black" stroke="black" points="62.52,-333.24 57.36,-323.98 55.62,-334.44 62.52,-333.24"/>
</g>
<!-- n10 -->
<g id="node19" class="node">
<title>n10</title>
<ellipse fill="none" stroke="red" cx="113" cy="-378" rx="27" ry="18"/>
<text text-anchor="middle" x="113" y="-374.3" font-family="Times,serif" font-size="14.00">n9</text>
</g>
<!-- n8&#45;&gt;n10 -->
<g id="edge31" class="edge">
<title>n8&#45;&gt;n10</title>
<path fill="none" stroke="black" d="M113,-431.7C113,-423.98 113,-414.71 113,-406.11"/>
<polygon fill="black" stroke="black" points="116.5,-406.1 113,-396.1 109.5,-406.1 116.5,-406.1"/>
</g>
<!-- n13&#45;&gt;n12 -->
<g id="edge11" class="edge">
<title>n13&#45;&gt;n12</title>
<path fill="none" stroke="black" d="M186,-431.87C186,-407.67 186,-363.21 186,-334.39"/>
<polygon fill="black" stroke="black" points="189.5,-334.19 186,-324.19 182.5,-334.19 189.5,-334.19"/>
</g>
<!-- n7&#45;&gt;n2 -->
<g id="edge8" class="edge">
<title>n7&#45;&gt;n2</title>
<path fill="none" stroke="black" d="M51.93,-288.11C45.45,-247.28 34.41,-141.47 79,-72 91.96,-51.8 115.58,-38.32 135.36,-30.02"/>
<polygon fill="black" stroke="black" points="136.68,-33.26 144.71,-26.34 134.12,-26.74 136.68,-33.26"/>
</g>
<!-- n10&#45;&gt;n2 -->
<g id="edge9" class="edge">
<title>n10&#45;&gt;n2</title>
<path fill="none" stroke="black" d="M112.82,-359.61C112.57,-335.46 112.15,-290.41 112,-252 111.94,-236 109.75,-231.84 112,-216 120.91,-153.17 145.04,-82.33 158.88,-45.09"/>
<polygon fill="black" stroke="black" points="162.24,-46.11 162.49,-35.52 155.69,-43.64 162.24,-46.11"/>
</g>
<!-- n10&#45;&gt;n12 -->
<g id="edge12" class="edge">
<title>n10&#45;&gt;n12</title>
<path fill="none" stroke="black" d="M127.77,-362.83C138.09,-352.94 152.06,-339.55 163.73,-328.36"/>
<polygon fill="black" stroke="black" points="166.2,-330.83 171,-321.38 161.36,-325.78 166.2,-330.83"/>
</g>
</g>
</svg>
