<?xml version="1.0" encoding="UTF-8" standalone="no"?>
<!DOCTYPE svg PUBLIC "-//W3C//DTD SVG 1.1//EN"
 "http://www.w3.org/Graphics/SVG/1.1/DTD/svg11.dtd">
<!-- Generated by graphviz version 2.43.0 (0)
 -->
<!-- Title: G Pages: 1 -->
<svg width="468pt" height="692pt"
 viewBox="0.00 0.00 468.44 692.00" xmlns="http://www.w3.org/2000/svg" xmlns:xlink="http://www.w3.org/1999/xlink">
<g id="graph0" class="graph" transform="scale(1 1) rotate(0) translate(4 688)">
<title>G</title>
<polygon fill="white" stroke="transparent" points="-4,4 -4,-688 464.44,-688 464.44,4 -4,4"/>
<!-- n2 -->
<g id="node1" class="node">
<title>n2</title>
<ellipse fill="none" stroke="red" cx="178" cy="-18" rx="27" ry="18"/>
<text text-anchor="middle" x="178" y="-14.3" font-family="Times,serif" font-size="14.00">all</text>
</g>
<!-- n5 -->
<g id="node2" class="node">
<title>n5</title>
<ellipse fill="none" stroke="red" cx="292" cy="-666" rx="36" ry="18"/>
<text text-anchor="middle" x="292" y="-662.3" font-family="Times,serif" font-size="14.00">n1_j1</text>
</g>
<!-- n6 -->
<g id="node12" class="node">
<title>n6</title>
<ellipse fill="none" stroke="green" cx="397" cy="-594" rx="36" ry="18"/>
<text text-anchor="middle" x="397" y="-590.3" font-family="Times,serif" font-size="14.00">n2_j2</text>
</g>
<!-- n5&#45;&gt;n6 -->
<g id="edge24" class="edge">
<title>n5&#45;&gt;n6</title>
<path fill="none" stroke="black" d="M312.74,-651.17C328.42,-640.72 350.15,-626.24 367.61,-614.59"/>
<polygon fill="black" stroke="black" points="369.92,-617.26 376.3,-608.8 366.04,-611.44 369.92,-617.26"/>
</g>
<!-- n4 -->
<g id="node13" class="node">
<title>n4</title>
<ellipse fill="none" stroke="red" cx="248" cy="-594" rx="36" ry="18"/>
<text text-anchor="middle" x="248" y="-590.3" font-family="Times,serif" font-size="14.00">n3_j1</text>
</g>
<!-- n5&#45;&gt;n4 -->
<g id="edge25" class="edge">
<title>n5&#45;&gt;n4</title>
<path fill="none" stroke="black" d="M281.57,-648.41C276.26,-639.95 269.68,-629.49 263.76,-620.08"/>
<polygon fill="black" stroke="black" points="266.64,-618.07 258.35,-611.47 260.71,-621.8 266.64,-618.07"/>
</g>
<!-- n12 -->
<g id="node3" class="node">
<title>n12</title>
<ellipse fill="none" stroke="blue" cx="213" cy="-306" rx="41.69" ry="18"/>
<text text-anchor="middle" x="213" y="-302.3" font-family="Times,serif" font-size="14.00">n10_j3</text>
</g>
<!-- n11 -->
<g id="node4" class="node">
<title>n11</title>
<ellipse fill="none" stroke="blue" cx="173" cy="-234" rx="41.69" ry="18"/>
<text text-anchor="middle" x="173" y="-230.3" font-family="Times,serif" font-size="14.00">n11_j3</text>
</g>
<!-- n12&#45;&gt;n11 -->
<g id="edge13" class="edge">
<title>n12&#45;&gt;n11</title>
<path fill="none" stroke="black" d="M203.52,-288.41C198.81,-280.16 193.01,-270.01 187.73,-260.78"/>
<polygon fill="black" stroke="black" points="190.69,-258.9 182.69,-251.96 184.61,-262.38 190.69,-258.9"/>
</g>
<!-- n15 -->
<g id="node5" class="node">
<title>n15</title>
<ellipse fill="none" stroke="blue" cx="243" cy="-162" rx="41.69" ry="18"/>
<text text-anchor="middle" x="243" y="-158.3" font-family="Times,serif" font-size="14.00">n12_j3</text>
</g>
<!-- n12&#45;&gt;n15 -->
<g id="edge14" class="edge">
<title>n12&#45;&gt;n15</title>
<path fill="none" stroke="black" d="M216.62,-287.87C221.75,-263.56 231.21,-218.82 237.29,-190.01"/>
<polygon fill="black" stroke="black" points="240.73,-190.7 239.37,-180.19 233.88,-189.25 240.73,-190.7"/>
</g>
<!-- n11&#45;&gt;n2 -->
<g id="edge1" class="edge">
<title>n11&#45;&gt;n2</title>
<path fill="none" stroke="black" d="M173.4,-215.85C174.27,-178.83 176.31,-91.18 177.36,-46.39"/>
<polygon fill="black" stroke="black" points="180.86,-46.31 177.6,-36.23 173.86,-46.15 180.86,-46.31"/>
</g>
<!-- n11&#45;&gt;n15 -->
<g id="edge15" class="edge">
<title>n11&#45;&gt;n15</title>
<path fill="none" stroke="black" d="M188.88,-217.12C198.1,-207.9 209.87,-196.13 220.08,-185.92"/>
<polygon fill="black" stroke="black" points="222.58,-188.37 227.18,-178.82 217.63,-183.42 222.58,-188.37"/>
</g>
<!-- n15&#45;&gt;n2 -->
<g id="edge2" class="edge">
<title>n15&#45;&gt;n2</title>
<path fill="none" stroke="black" d="M225.68,-145.42C215.82,-135.62 204.07,-122.17 197,-108 187.33,-88.62 182.57,-64.47 180.23,-46.22"/>
<polygon fill="black" stroke="black" points="183.71,-45.79 179.12,-36.24 176.75,-46.56 183.71,-45.79"/>
</g>
<!-- n20 -->
<g id="node11" class="node">
<title>n20</title>
<ellipse fill="none" stroke="blue" cx="248" cy="-90" rx="41.69" ry="18"/>
<text text-anchor="middle" x="248" y="-86.3" font-family="Times,serif" font-size="14.00">n18_j3</text>
</g>
<!-- n15&#45;&gt;n20 -->
<g id="edge22" class="edge">
<title>n15&#45;&gt;n20</title>
<path fill="none" stroke="black" d="M244.24,-143.7C244.79,-135.98 245.45,-126.71 246.06,-118.11"/>
<polygon fill="black" stroke="black" points="249.56,-118.33 246.78,-108.1 242.57,-117.83 249.56,-118.33"/>
</g>
<!-- n14 -->
<g id="node6" class="node">
<title>n14</title>
<ellipse fill="none" stroke="blue" cx="305" cy="-378" rx="41.69" ry="18"/>
<text text-anchor="middle" x="305" y="-374.3" font-family="Times,serif" font-size="14.00">n13_j3</text>
</g>
<!-- n14&#45;&gt;n12 -->
<g id="edge10" class="edge">
<title>n14&#45;&gt;n12</title>
<path fill="none" stroke="black" d="M285.04,-361.81C272.05,-351.93 254.93,-338.9 240.64,-328.03"/>
<polygon fill="black" stroke="black" points="242.69,-325.19 232.61,-321.92 238.45,-330.76 242.69,-325.19"/>
</g>
<!-- n17 -->
<g id="node7" class="node">
<title>n17</title>
<ellipse fill="none" stroke="green" cx="314" cy="-306" rx="41.69" ry="18"/>
<text text-anchor="middle" x="314" y="-302.3" font-family="Times,serif" font-size="14.00">n14_j2</text>
</g>
<!-- n14&#45;&gt;n17 -->
<g id="edge18" class="edge">
<title>n14&#45;&gt;n17</title>
<path fill="none" stroke="black" d="M307.22,-359.7C308.22,-351.98 309.41,-342.71 310.51,-334.11"/>
<polygon fill="black" stroke="black" points="314,-334.47 311.8,-324.1 307.05,-333.58 314,-334.47"/>
</g>
<!-- n19 -->
<g id="node8" class="node">
<title>n19</title>
<ellipse fill="none" stroke="blue" cx="388" cy="-162" rx="41.69" ry="18"/>
<text text-anchor="middle" x="388" y="-158.3" font-family="Times,serif" font-size="14.00">n15_j3</text>
</g>
<!-- n14&#45;&gt;n19 -->
<g id="edge19" class="edge">
<title>n14&#45;&gt;n19</title>
<path fill="none" stroke="black" d="M327.76,-362.89C340.85,-353.53 356.36,-340.03 365,-324 387.88,-281.58 390.47,-224.14 389.66,-190.58"/>
<polygon fill="black" stroke="black" points="393.14,-190.04 389.28,-180.17 386.15,-190.29 393.14,-190.04"/>
</g>
<!-- n16 -->
<g id="node9" class="node">
<title>n16</title>
<ellipse fill="none" stroke="blue" cx="314" cy="-234" rx="41.69" ry="18"/>
<text text-anchor="middle" x="314" y="-230.3" font-family="Times,serif" font-size="14.00">n16_j3</text>
</g>
<!-- n17&#45;&gt;n16 -->
<g id="edge20" class="edge">
<title>n17&#45;&gt;n16</title>
<path fill="none" stroke="black" d="M314,-287.7C314,-279.98 314,-270.71 314,-262.11"/>
<polygon fill="black" stroke="black" points="317.5,-262.1 314,-252.1 310.5,-262.1 317.5,-262.1"/>
</g>
<!-- n18 -->
<g id="node10" class="node">
<title>n18</title>
<ellipse fill="none" stroke="green" cx="388" cy="-90" rx="41.69" ry="18"/>
<text text-anchor="middle" x="388" y="-86.3" font-family="Times,serif" font-size="14.00">n17_j2</text>
</g>
<!-- n19&#45;&gt;n18 -->
<g id="edge21" class="edge">
<title>n19&#45;&gt;n18</title>
<path fill="none" stroke="black" d="M388,-143.7C388,-135.98 388,-126.71 388,-118.11"/>
<polygon fill="black" stroke="black" points="391.5,-118.1 388,-108.1 384.5,-118.1 391.5,-118.1"/>
</g>
<!-- n19&#45;&gt;n20 -->
<g id="edge23" class="edge">
<title>n19&#45;&gt;n20</title>
<path fill="none" stroke="black" d="M361.67,-147.83C339.57,-136.79 307.81,-120.9 283.47,-108.74"/>
<polygon fill="black" stroke="black" points="284.72,-105.45 274.21,-104.11 281.59,-111.71 284.72,-105.45"/>
</g>
<!-- n16&#45;&gt;n2 -->
<g id="edge3" class="edge">
<title>n16&#45;&gt;n2</title>
<path fill="none" stroke="black" d="M317.57,-216.04C323.21,-184.41 330.55,-115.7 299,-72 279.21,-44.59 242.1,-31.18 214.17,-24.73"/>
<polygon fill="black" stroke="black" points="214.85,-21.29 204.34,-22.65 213.4,-28.14 214.85,-21.29"/>
</g>
<!-- n16&#45;&gt;n15 -->
<g id="edge16" class="edge">
<title>n16&#45;&gt;n15</title>
<path fill="none" stroke="black" d="M297.89,-217.12C288.54,-207.9 276.6,-196.13 266.25,-185.92"/>
<polygon fill="black" stroke="black" points="268.63,-183.35 259.05,-178.82 263.71,-188.33 268.63,-183.35"/>
</g>
<!-- n18&#45;&gt;n2 -->
<g id="edge4" class="edge">
<title>n18&#45;&gt;n2</title>
<path fill="none" stroke="black" d="M356.11,-78.37C316.97,-65.32 250.93,-43.31 211.2,-30.07"/>
<polygon fill="black" stroke="black" points="212.3,-26.74 201.7,-26.9 210.08,-33.38 212.3,-26.74"/>
</g>
<!-- n20&#45;&gt;n2 -->
<g id="edge5" class="edge">
<title>n20&#45;&gt;n2</title>
<path fill="none" stroke="black" d="M232.12,-73.12C222.51,-63.51 210.13,-51.13 199.63,-40.63"/>
<polygon fill="black" stroke="black" points="201.94,-37.99 192.39,-33.39 196.99,-42.94 201.94,-37.99"/>
</g>
<!-- n6&#45;&gt;n2 -->
<g id="edge6" class="edge">
<title>n6&#45;&gt;n2</title>
<path fill="none" stroke="black" d="M409.05,-576.92C426.83,-551.57 458,-500.1 458,-451 458,-451 458,-451 458,-161 458,-120.55 467.74,-100.46 439,-72 407.8,-41.11 279.23,-26.88 214.95,-21.6"/>
<polygon fill="black" stroke="black" points="215.08,-18.1 204.84,-20.79 214.53,-25.07 215.08,-18.1"/>
</g>
<!-- n4&#45;&gt;n14 -->
<g id="edge17" class="edge">
<title>n4&#45;&gt;n14</title>
<path fill="none" stroke="black" d="M252.57,-575.85C262.47,-538.66 285.99,-450.37 297.87,-405.77"/>
<polygon fill="black" stroke="black" points="301.3,-406.5 300.49,-395.94 294.53,-404.7 301.3,-406.5"/>
</g>
<!-- n3 -->
<g id="node14" class="node">
<title>n3</title>
<ellipse fill="none" stroke="red" cx="63" cy="-522" rx="36" ry="18"/>
<text text-anchor="middle" x="63" y="-518.3" font-family="Times,serif" font-size="14.00">n4_j1</text>
</g>
<!-- n4&#45;&gt;n3 -->
<g id="edge26" class="edge">
<title>n4&#45;&gt;n3</title>
<path fill="none" stroke="black" d="M220.3,-582.52C188.42,-570.46 135.91,-550.59 100.41,-537.16"/>
<polygon fill="black" stroke="black" points="101.48,-533.82 90.89,-533.55 99,-540.36 101.48,-533.82"/>
</g>
<!-- n9 -->
<g id="node15" class="node">
<title>n9</title>
<ellipse fill="none" stroke="green" cx="216" cy="-522" rx="36" ry="18"/>
<text text-anchor="middle" x="216" y="-518.3" font-family="Times,serif" font-size="14.00">n5_j2</text>
</g>
<!-- n4&#45;&gt;n9 -->
<g id="edge27" class="edge">
<title>n4&#45;&gt;n9</title>
<path fill="none" stroke="black" d="M240.25,-576.05C236.56,-567.97 232.06,-558.12 227.94,-549.11"/>
<polygon fill="black" stroke="black" points="231.02,-547.43 223.67,-539.79 224.65,-550.34 231.02,-547.43"/>
</g>
<!-- n3&#45;&gt;n2 -->
<g id="edge7" class="edge">
<title>n3&#45;&gt;n2</title>
<path fill="none" stroke="black" d="M50.55,-504.99C32.19,-479.71 0,-428.36 0,-379 0,-379 0,-379 0,-161 0,-88.18 92.17,-46.63 143.86,-29.06"/>
<polygon fill="black" stroke="black" points="145.21,-32.3 153.62,-25.86 143.03,-25.65 145.21,-32.3"/>
</g>
<!-- n8 -->
<g id="node16" class="node">
<title>n8</title>
<ellipse fill="none" stroke="green" cx="127" cy="-450" rx="36" ry="18"/>
<text text-anchor="middle" x="127" y="-446.3" font-family="Times,serif" font-size="14.00">n6_j2</text>
</g>
<!-- n9&#45;&gt;n8 -->
<g id="edge28" class="edge">
<title>n9&#45;&gt;n8</title>
<path fill="none" stroke="black" d="M197.56,-506.5C184.79,-496.45 167.6,-482.93 153.39,-471.75"/>
<polygon fill="black" stroke="black" points="155.44,-468.92 145.42,-465.49 151.11,-474.42 155.44,-468.92"/>
</g>
<!-- n13 -->
<g id="node17" class="node">
<title>n13</title>
<ellipse fill="none" stroke="green" cx="216" cy="-450" rx="36" ry="18"/>
<text text-anchor="middle" x="216" y="-446.3" font-family="Times,serif" font-size="14.00">n7_j2</text>
</g>
<!-- n9&#45;&gt;n13 -->
<g id="edge29" class="edge">
<title>n9&#45;&gt;n13</title>
<path fill="none" stroke="black" d="M216,-503.7C216,-495.98 216,-486.71 216,-478.11"/>
<polygon fill="black" stroke="black" points="219.5,-478.1 216,-468.1 212.5,-478.1 219.5,-478.1"/>
</g>
<!-- n7 -->
<g id="node18" class="node">
<title>n7</title>
<ellipse fill="none" stroke="green" cx="64" cy="-306" rx="36" ry="18"/>
<text text-anchor="middle" x="64" y="-302.3" font-family="Times,serif" font-size="14.00">n8_j2</text>
</g>
<!-- n8&#45;&gt;n7 -->
<g id="edge30" class="edge">
<title>n8&#45;&gt;n7</title>
<path fill="none" stroke="black" d="M110.88,-433.74C101.37,-423.85 89.89,-410.2 83,-396 73.55,-376.51 68.77,-352.37 66.37,-334.15"/>
<polygon fill="black" stroke="black" points="69.84,-333.72 65.22,-324.19 62.89,-334.53 69.84,-333.72"/>
</g>
<!-- n10 -->
<g id="node19" class="node">
<title>n10</title>
<ellipse fill="none" stroke="blue" cx="128" cy="-378" rx="36" ry="18"/>
<text text-anchor="middle" x="128" y="-374.3" font-family="Times,serif" font-size="14.00">n9_j3</text>
</g>
<!-- n8&#45;&gt;n10 -->
<g id="edge31" class="edge">
<title>n8&#45;&gt;n10</title>
<path fill="none" stroke="black" d="M127.25,-431.7C127.36,-423.98 127.49,-414.71 127.61,-406.11"/>
<polygon fill="black" stroke="black" points="131.11,-406.15 127.76,-396.1 124.11,-406.05 131.11,-406.15"/>
</g>
<!-- n13&#45;&gt;n12 -->
<g id="edge11" class="edge">
<title>n13&#45;&gt;n12</title>
<path fill="none" stroke="black" d="M215.64,-431.87C215.13,-407.67 214.19,-363.21 213.58,-334.39"/>
<polygon fill="black" stroke="black" points="217.07,-334.11 213.36,-324.19 210.08,-334.26 217.07,-334.11"/>
</g>
<!-- n7&#45;&gt;n2 -->
<g id="edge8" class="edge">
<title>n7&#45;&gt;n2</title>
<path fill="none" stroke="black" d="M60.88,-287.8C54.39,-246.76 43.52,-141.3 88,-72 100.96,-51.8 124.58,-38.32 144.36,-30.02"/>
<polygon fill="black" stroke="black" points="145.68,-33.26 153.71,-26.34 143.12,-26.74 145.68,-33.26"/>
</g>
<!-- n10&#45;&gt;n2 -->
<g id="edge9" class="edge">
<title>n10&#45;&gt;n2</title>
<path fill="none" stroke="black" d="M126.9,-359.62C125.44,-335.48 122.92,-290.44 122,-252 121.62,-236 119.79,-231.85 122,-216 130.75,-153.23 154.46,-82.37 168.06,-45.11"/>
<polygon fill="black" stroke="black" points="171.42,-46.12 171.61,-35.53 164.85,-43.69 171.42,-46.12"/>
</g>
<!-- n10&#45;&gt;n12 -->
<g id="edge12" class="edge">
<title>n10&#45;&gt;n12</title>
<path fill="none" stroke="black" d="M146.03,-362.15C157.81,-352.45 173.4,-339.61 186.58,-328.76"/>
<polygon fill="black" stroke="black" points="188.92,-331.37 194.41,-322.31 184.47,-325.96 188.92,-331.37"/>
</g>
</g>
</svg>
