<?xml version="1.0" encoding="UTF-8" standalone="no"?>
<!DOCTYPE svg PUBLIC "-//W3C//DTD SVG 1.1//EN"
 "http://www.w3.org/Graphics/SVG/1.1/DTD/svg11.dtd">
<!-- Generated by graphviz version 2.43.0 (0)
 -->
<!-- Title: G Pages: 1 -->
<svg width="4337pt" height="476pt"
 viewBox="0.00 0.00 4337.19 476.00" xmlns="http://www.w3.org/2000/svg" xmlns:xlink="http://www.w3.org/1999/xlink">
<g id="graph0" class="graph" transform="scale(1 1) rotate(0) translate(4 472)">
<title>G</title>
<polygon fill="white" stroke="transparent" points="-4,4 -4,-472 4333.19,-472 4333.19,4 -4,4"/>
<!-- n11 -->
<g id="node1" class="node">
<title>n11</title>
<ellipse fill="none" stroke="green" cx="2666.19" cy="-450" rx="53.89" ry="18"/>
<text text-anchor="middle" x="2666.19" y="-446.3" font-family="Times,serif" font-size="14.00">adler32.c</text>
</g>
<!-- n55 -->
<g id="node2" class="node">
<title>n55</title>
<ellipse fill="none" stroke="red" cx="2731.19" cy="-378" rx="57.69" ry="18"/>
<text text-anchor="middle" x="2731.19" y="-374.3" font-family="Times,serif" font-size="14.00">adler32.lo</text>
</g>
<!-- n11&#45;&gt;n55 -->
<g id="edge1" class="edge">
<title>n11&#45;&gt;n55</title>
<path fill="none" stroke="black" d="M2681.6,-432.41C2689.77,-423.61 2699.97,-412.63 2708.98,-402.92"/>
<polygon fill="black" stroke="black" points="2711.66,-405.18 2715.9,-395.47 2706.53,-400.42 2711.66,-405.18"/>
</g>
<!-- n10 -->
<g id="node3" class="node">
<title>n10</title>
<ellipse fill="none" stroke="red" cx="2601.19" cy="-378" rx="54.69" ry="18"/>
<text text-anchor="middle" x="2601.19" y="-374.3" font-family="Times,serif" font-size="14.00">adler32.o</text>
</g>
<!-- n11&#45;&gt;n10 -->
<g id="edge5" class="edge">
<title>n11&#45;&gt;n10</title>
<path fill="none" stroke="black" d="M2650.79,-432.41C2642.61,-423.61 2632.42,-412.63 2623.41,-402.92"/>
<polygon fill="black" stroke="black" points="2625.86,-400.42 2616.49,-395.47 2620.73,-405.18 2625.86,-400.42"/>
</g>
<!-- n54 -->
<g id="node52" class="node">
<title>n54</title>
<ellipse fill="none" stroke="red" cx="2108.19" cy="-234" rx="110.48" ry="18"/>
<text text-anchor="middle" x="2108.19" y="-230.3" font-family="Times,serif" font-size="14.00">libz.so.1.3.1.1&#45;motley</text>
</g>
<!-- n55&#45;&gt;n54 -->
<g id="edge155" class="edge">
<title>n55&#45;&gt;n54</title>
<path fill="none" stroke="black" d="M2688.29,-365.74C2680.61,-363.78 2672.67,-361.8 2665.19,-360 2492.75,-318.45 2289.18,-273.9 2182.29,-250.85"/>
<polygon fill="black" stroke="black" points="2182.76,-247.38 2172.25,-248.69 2181.29,-254.22 2182.76,-247.38"/>
</g>
<!-- n9 -->
<g id="node51" class="node">
<title>n9</title>
<ellipse fill="none" stroke="red" cx="1724.19" cy="-306" rx="36" ry="18"/>
<text text-anchor="middle" x="1724.19" y="-302.3" font-family="Times,serif" font-size="14.00">libz.a</text>
</g>
<!-- n10&#45;&gt;n9 -->
<g id="edge140" class="edge">
<title>n10&#45;&gt;n9</title>
<path fill="none" stroke="black" d="M2562.48,-365.26C2554.51,-363.21 2546.13,-361.32 2538.19,-360 2249.04,-312.06 1895.38,-306.99 1770.52,-306.81"/>
<polygon fill="black" stroke="black" points="1770.19,-303.31 1760.19,-306.81 1770.19,-310.31 1770.19,-303.31"/>
</g>
<!-- n2 -->
<g id="node4" class="node">
<title>n2</title>
<ellipse fill="none" stroke="red" cx="1860.19" cy="-18" rx="27" ry="18"/>
<text text-anchor="middle" x="1860.19" y="-14.3" font-family="Times,serif" font-size="14.00">all</text>
</g>
<!-- n71 -->
<g id="node5" class="node">
<title>n71</title>
<ellipse fill="none" stroke="red" cx="1860.19" cy="-162" rx="33.6" ry="18"/>
<text text-anchor="middle" x="1860.19" y="-158.3" font-family="Times,serif" font-size="14.00">all64</text>
</g>
<!-- n71&#45;&gt;n2 -->
<g id="edge9" class="edge">
<title>n71&#45;&gt;n2</title>
<path fill="none" stroke="black" d="M1860.19,-143.87C1860.19,-119.67 1860.19,-75.21 1860.19,-46.39"/>
<polygon fill="black" stroke="black" points="1863.7,-46.19 1860.19,-36.19 1856.7,-46.19 1863.7,-46.19"/>
</g>
<!-- n38 -->
<g id="node6" class="node">
<title>n38</title>
<ellipse fill="none" stroke="green" cx="1641.19" cy="-450" rx="63.09" ry="18"/>
<text text-anchor="middle" x="1641.19" y="-446.3" font-family="Times,serif" font-size="14.00">compress.c</text>
</g>
<!-- n64 -->
<g id="node7" class="node">
<title>n64</title>
<ellipse fill="none" stroke="red" cx="1923.19" cy="-378" rx="66.09" ry="18"/>
<text text-anchor="middle" x="1923.19" y="-374.3" font-family="Times,serif" font-size="14.00">compress.lo</text>
</g>
<!-- n38&#45;&gt;n64 -->
<g id="edge14" class="edge">
<title>n38&#45;&gt;n64</title>
<path fill="none" stroke="black" d="M1687.13,-437.6C1735.96,-425.48 1813.25,-406.29 1865.99,-393.2"/>
<polygon fill="black" stroke="black" points="1867,-396.55 1875.87,-390.75 1865.32,-389.76 1867,-396.55"/>
</g>
<!-- n37 -->
<g id="node8" class="node">
<title>n37</title>
<ellipse fill="none" stroke="red" cx="1427.19" cy="-378" rx="63.89" ry="18"/>
<text text-anchor="middle" x="1427.19" y="-374.3" font-family="Times,serif" font-size="14.00">compress.o</text>
</g>
<!-- n38&#45;&gt;n37 -->
<g id="edge17" class="edge">
<title>n38&#45;&gt;n37</title>
<path fill="none" stroke="black" d="M1601.44,-436C1566.27,-424.49 1514.79,-407.65 1476.9,-395.26"/>
<polygon fill="black" stroke="black" points="1477.69,-391.83 1467.09,-392.05 1475.51,-398.49 1477.69,-391.83"/>
</g>
<!-- n64&#45;&gt;n54 -->
<g id="edge156" class="edge">
<title>n64&#45;&gt;n54</title>
<path fill="none" stroke="black" d="M1944.42,-360.71C1977.33,-335.45 2040.79,-286.74 2078.32,-257.93"/>
<polygon fill="black" stroke="black" points="2080.56,-260.62 2086.36,-251.76 2076.3,-255.07 2080.56,-260.62"/>
</g>
<!-- n37&#45;&gt;n9 -->
<g id="edge141" class="edge">
<title>n37&#45;&gt;n9</title>
<path fill="none" stroke="black" d="M1474.58,-365.83C1531.97,-352.31 1627.73,-329.74 1682.45,-316.84"/>
<polygon fill="black" stroke="black" points="1683.57,-320.17 1692.5,-314.47 1681.96,-313.36 1683.57,-320.17"/>
</g>
<!-- n14 -->
<g id="node9" class="node">
<title>n14</title>
<ellipse fill="none" stroke="green" cx="1426.19" cy="-450" rx="44.39" ry="18"/>
<text text-anchor="middle" x="1426.19" y="-446.3" font-family="Times,serif" font-size="14.00">crc32.c</text>
</g>
<!-- n56 -->
<g id="node11" class="node">
<title>n56</title>
<ellipse fill="none" stroke="red" cx="1791.19" cy="-378" rx="48.19" ry="18"/>
<text text-anchor="middle" x="1791.19" y="-374.3" font-family="Times,serif" font-size="14.00">crc32.lo</text>
</g>
<!-- n14&#45;&gt;n56 -->
<g id="edge20" class="edge">
<title>n14&#45;&gt;n56</title>
<path fill="none" stroke="black" d="M1467.86,-443.44C1527.36,-435.14 1639.9,-418.09 1734.19,-396 1738.04,-395.1 1742.02,-394.09 1745.99,-393.02"/>
<polygon fill="black" stroke="black" points="1747.11,-396.34 1755.8,-390.27 1745.22,-389.6 1747.11,-396.34"/>
</g>
<!-- n13 -->
<g id="node12" class="node">
<title>n13</title>
<ellipse fill="none" stroke="red" cx="1300.19" cy="-378" rx="44.69" ry="18"/>
<text text-anchor="middle" x="1300.19" y="-374.3" font-family="Times,serif" font-size="14.00">crc32.o</text>
</g>
<!-- n14&#45;&gt;n13 -->
<g id="edge25" class="edge">
<title>n14&#45;&gt;n13</title>
<path fill="none" stroke="black" d="M1401,-435C1381.86,-424.37 1355.32,-409.63 1334.28,-397.94"/>
<polygon fill="black" stroke="black" points="1335.79,-394.77 1325.35,-392.97 1332.39,-400.89 1335.79,-394.77"/>
</g>
<!-- n15 -->
<g id="node10" class="node">
<title>n15</title>
<ellipse fill="none" stroke="green" cx="1309.19" cy="-450" rx="45.49" ry="18"/>
<text text-anchor="middle" x="1309.19" y="-446.3" font-family="Times,serif" font-size="14.00">crc32.h</text>
</g>
<!-- n15&#45;&gt;n56 -->
<g id="edge21" class="edge">
<title>n15&#45;&gt;n56</title>
<path fill="none" stroke="black" d="M1344.51,-438.54C1353.78,-436.09 1363.81,-433.7 1373.19,-432 1531.84,-403.21 1576,-427.18 1734.19,-396 1738.3,-395.19 1742.53,-394.21 1746.75,-393.14"/>
<polygon fill="black" stroke="black" points="1747.76,-396.49 1756.49,-390.49 1745.92,-389.74 1747.76,-396.49"/>
</g>
<!-- n15&#45;&gt;n13 -->
<g id="edge26" class="edge">
<title>n15&#45;&gt;n13</title>
<path fill="none" stroke="black" d="M1306.97,-431.7C1305.98,-423.98 1304.79,-414.71 1303.68,-406.11"/>
<polygon fill="black" stroke="black" points="1307.14,-405.58 1302.39,-396.1 1300.2,-406.47 1307.14,-405.58"/>
</g>
<!-- n56&#45;&gt;n54 -->
<g id="edge157" class="edge">
<title>n56&#45;&gt;n54</title>
<path fill="none" stroke="black" d="M1820.7,-363.7C1859.38,-346.27 1929.34,-314.78 1989.19,-288 2013.49,-277.13 2040.6,-265.05 2062.8,-255.18"/>
<polygon fill="black" stroke="black" points="2064.27,-258.35 2071.99,-251.09 2061.43,-251.95 2064.27,-258.35"/>
</g>
<!-- n13&#45;&gt;n9 -->
<g id="edge142" class="edge">
<title>n13&#45;&gt;n9</title>
<path fill="none" stroke="black" d="M1333.09,-365.71C1340,-363.6 1347.29,-361.57 1354.19,-360 1415.39,-346.08 1595.35,-322.94 1679.66,-312.46"/>
<polygon fill="black" stroke="black" points="1680.2,-315.92 1689.7,-311.21 1679.34,-308.97 1680.2,-315.92"/>
</g>
<!-- n17 -->
<g id="node13" class="node">
<title>n17</title>
<ellipse fill="none" stroke="green" cx="2860.19" cy="-450" rx="50.09" ry="18"/>
<text text-anchor="middle" x="2860.19" y="-446.3" font-family="Times,serif" font-size="14.00">deflate.c</text>
</g>
<!-- n57 -->
<g id="node15" class="node">
<title>n57</title>
<ellipse fill="none" stroke="red" cx="2981.19" cy="-378" rx="53.89" ry="18"/>
<text text-anchor="middle" x="2981.19" y="-374.3" font-family="Times,serif" font-size="14.00">deflate.lo</text>
</g>
<!-- n17&#45;&gt;n57 -->
<g id="edge30" class="edge">
<title>n17&#45;&gt;n57</title>
<path fill="none" stroke="black" d="M2885.56,-434.33C2903.27,-424.08 2927.12,-410.28 2946.58,-399.03"/>
<polygon fill="black" stroke="black" points="2948.54,-401.93 2955.45,-393.9 2945.04,-395.87 2948.54,-401.93"/>
</g>
<!-- n16 -->
<g id="node16" class="node">
<title>n16</title>
<ellipse fill="none" stroke="red" cx="2858.19" cy="-378" rx="50.89" ry="18"/>
<text text-anchor="middle" x="2858.19" y="-374.3" font-family="Times,serif" font-size="14.00">deflate.o</text>
</g>
<!-- n17&#45;&gt;n16 -->
<g id="edge35" class="edge">
<title>n17&#45;&gt;n16</title>
<path fill="none" stroke="black" d="M2859.7,-431.7C2859.48,-423.98 2859.22,-414.71 2858.97,-406.11"/>
<polygon fill="black" stroke="black" points="2862.47,-406 2858.68,-396.1 2855.47,-406.2 2862.47,-406"/>
</g>
<!-- n18 -->
<g id="node14" class="node">
<title>n18</title>
<ellipse fill="none" stroke="green" cx="2981.19" cy="-450" rx="51.19" ry="18"/>
<text text-anchor="middle" x="2981.19" y="-446.3" font-family="Times,serif" font-size="14.00">deflate.h</text>
</g>
<!-- n18&#45;&gt;n57 -->
<g id="edge31" class="edge">
<title>n18&#45;&gt;n57</title>
<path fill="none" stroke="black" d="M2981.19,-431.7C2981.19,-423.98 2981.19,-414.71 2981.19,-406.11"/>
<polygon fill="black" stroke="black" points="2984.7,-406.1 2981.19,-396.1 2977.7,-406.1 2984.7,-406.1"/>
</g>
<!-- n18&#45;&gt;n16 -->
<g id="edge36" class="edge">
<title>n18&#45;&gt;n16</title>
<path fill="none" stroke="black" d="M2955.41,-434.33C2937.21,-423.97 2912.61,-409.97 2892.72,-398.65"/>
<polygon fill="black" stroke="black" points="2894.37,-395.56 2883.95,-393.65 2890.91,-401.64 2894.37,-395.56"/>
</g>
<!-- n62 -->
<g id="node64" class="node">
<title>n62</title>
<ellipse fill="none" stroke="red" cx="3203.19" cy="-378" rx="46.29" ry="18"/>
<text text-anchor="middle" x="3203.19" y="-374.3" font-family="Times,serif" font-size="14.00">trees.lo</text>
</g>
<!-- n18&#45;&gt;n62 -->
<g id="edge187" class="edge">
<title>n18&#45;&gt;n62</title>
<path fill="none" stroke="black" d="M3018.1,-437.36C3056.72,-425.19 3117.34,-406.07 3158.61,-393.06"/>
<polygon fill="black" stroke="black" points="3159.91,-396.32 3168.4,-389.97 3157.81,-389.64 3159.91,-396.32"/>
</g>
<!-- n31 -->
<g id="node65" class="node">
<title>n31</title>
<ellipse fill="none" stroke="red" cx="3096.19" cy="-378" rx="42.79" ry="18"/>
<text text-anchor="middle" x="3096.19" y="-374.3" font-family="Times,serif" font-size="14.00">trees.o</text>
</g>
<!-- n18&#45;&gt;n31 -->
<g id="edge193" class="edge">
<title>n18&#45;&gt;n31</title>
<path fill="none" stroke="black" d="M3005.58,-434.15C3022.58,-423.81 3045.44,-409.9 3063.94,-398.63"/>
<polygon fill="black" stroke="black" points="3065.91,-401.53 3072.63,-393.35 3062.27,-395.55 3065.91,-401.53"/>
</g>
<!-- n57&#45;&gt;n54 -->
<g id="edge158" class="edge">
<title>n57&#45;&gt;n54</title>
<path fill="none" stroke="black" d="M2941.7,-365.63C2933.94,-363.6 2925.84,-361.62 2918.19,-360 2663.03,-306.06 2358.03,-265.28 2205.36,-246.47"/>
<polygon fill="black" stroke="black" points="2205.43,-242.95 2195.08,-245.21 2204.57,-249.9 2205.43,-242.95"/>
</g>
<!-- n16&#45;&gt;n9 -->
<g id="edge143" class="edge">
<title>n16&#45;&gt;n9</title>
<path fill="none" stroke="black" d="M2822.01,-365.32C2814.22,-363.21 2805.99,-361.28 2798.19,-360 2595.56,-326.74 1948.07,-311.5 1769.93,-307.88"/>
<polygon fill="black" stroke="black" points="1769.92,-304.38 1759.85,-307.67 1769.78,-311.37 1769.92,-304.38"/>
</g>
<!-- n4 -->
<g id="node17" class="node">
<title>n4</title>
<ellipse fill="none" stroke="red" cx="1517.19" cy="-234" rx="50.09" ry="18"/>
<text text-anchor="middle" x="1517.19" y="-230.3" font-family="Times,serif" font-size="14.00">example</text>
</g>
<!-- n3 -->
<g id="node59" class="node">
<title>n3</title>
<ellipse fill="none" stroke="red" cx="1772.19" cy="-162" rx="36.29" ry="18"/>
<text text-anchor="middle" x="1772.19" y="-158.3" font-family="Times,serif" font-size="14.00">static</text>
</g>
<!-- n4&#45;&gt;n3 -->
<g id="edge185" class="edge">
<title>n4&#45;&gt;n3</title>
<path fill="none" stroke="black" d="M1554.94,-222.02C1562,-220 1569.32,-217.92 1576.19,-216 1629.6,-201.09 1691.38,-184.49 1731.08,-173.91"/>
<polygon fill="black" stroke="black" points="1732.16,-177.24 1740.92,-171.29 1730.36,-170.48 1732.16,-177.24"/>
</g>
<!-- n5 -->
<g id="node18" class="node">
<title>n5</title>
<ellipse fill="none" stroke="red" cx="1023.19" cy="-378" rx="57.69" ry="18"/>
<text text-anchor="middle" x="1023.19" y="-374.3" font-family="Times,serif" font-size="14.00">example.o</text>
</g>
<!-- n5&#45;&gt;n4 -->
<g id="edge40" class="edge">
<title>n5&#45;&gt;n4</title>
<path fill="none" stroke="black" d="M1065.33,-365.62C1073.23,-363.63 1081.45,-361.67 1089.19,-360 1180.05,-340.39 1205.8,-349.43 1295.19,-324 1361.66,-305.09 1435.52,-273.16 1479.08,-253.12"/>
<polygon fill="black" stroke="black" points="1480.83,-256.17 1488.43,-248.79 1477.88,-249.82 1480.83,-256.17"/>
</g>
<!-- n53 -->
<g id="node21" class="node">
<title>n53</title>
<ellipse fill="none" stroke="red" cx="1972.19" cy="-162" rx="60.39" ry="18"/>
<text text-anchor="middle" x="1972.19" y="-158.3" font-family="Times,serif" font-size="14.00">examplesh</text>
</g>
<!-- n5&#45;&gt;n53 -->
<g id="edge50" class="edge">
<title>n5&#45;&gt;n53</title>
<path fill="none" stroke="black" d="M1053.44,-362.49C1123.01,-329.87 1300.54,-250.86 1458.19,-216 1651.94,-173.16 1707.34,-211.84 1903.19,-180 1908.32,-179.17 1913.61,-178.15 1918.9,-177.03"/>
<polygon fill="black" stroke="black" points="1919.99,-180.37 1928.98,-174.77 1918.46,-173.54 1919.99,-180.37"/>
</g>
<!-- n72 -->
<g id="node19" class="node">
<title>n72</title>
<ellipse fill="none" stroke="red" cx="1647.19" cy="-234" rx="61.99" ry="18"/>
<text text-anchor="middle" x="1647.19" y="-230.3" font-family="Times,serif" font-size="14.00">example64</text>
</g>
<!-- n72&#45;&gt;n71 -->
<g id="edge12" class="edge">
<title>n72&#45;&gt;n71</title>
<path fill="none" stroke="black" d="M1689.4,-220.79C1723.97,-210.56 1774.05,-195.23 1817.19,-180 1819.58,-179.16 1822.03,-178.27 1824.49,-177.35"/>
<polygon fill="black" stroke="black" points="1825.84,-180.58 1833.93,-173.74 1823.34,-174.04 1825.84,-180.58"/>
</g>
<!-- n73 -->
<g id="node20" class="node">
<title>n73</title>
<ellipse fill="none" stroke="red" cx="1168.19" cy="-378" rx="69.59" ry="18"/>
<text text-anchor="middle" x="1168.19" y="-374.3" font-family="Times,serif" font-size="14.00">example64.o</text>
</g>
<!-- n73&#45;&gt;n72 -->
<g id="edge45" class="edge">
<title>n73&#45;&gt;n72</title>
<path fill="none" stroke="black" d="M1219.42,-365.73C1286.38,-350.96 1396.25,-326.63 1405.19,-324 1475.9,-303.19 1555.77,-272.33 1603.76,-252.96"/>
<polygon fill="black" stroke="black" points="1605.26,-256.13 1613.21,-249.13 1602.63,-249.64 1605.26,-256.13"/>
</g>
<!-- n52 -->
<g id="node58" class="node">
<title>n52</title>
<ellipse fill="none" stroke="red" cx="1972.19" cy="-90" rx="42.49" ry="18"/>
<text text-anchor="middle" x="1972.19" y="-86.3" font-family="Times,serif" font-size="14.00">shared</text>
</g>
<!-- n53&#45;&gt;n52 -->
<g id="edge183" class="edge">
<title>n53&#45;&gt;n52</title>
<path fill="none" stroke="black" d="M1972.19,-143.7C1972.19,-135.98 1972.19,-126.71 1972.19,-118.11"/>
<polygon fill="black" stroke="black" points="1975.7,-118.1 1972.19,-108.1 1968.7,-118.1 1975.7,-118.1"/>
</g>
<!-- n42 -->
<g id="node22" class="node">
<title>n42</title>
<ellipse fill="none" stroke="green" cx="441.19" cy="-450" rx="52.79" ry="18"/>
<text text-anchor="middle" x="441.19" y="-446.3" font-family="Times,serif" font-size="14.00">gzclose.c</text>
</g>
<!-- n66 -->
<g id="node23" class="node">
<title>n66</title>
<ellipse fill="none" stroke="red" cx="440.19" cy="-378" rx="55.79" ry="18"/>
<text text-anchor="middle" x="440.19" y="-374.3" font-family="Times,serif" font-size="14.00">gzclose.lo</text>
</g>
<!-- n42&#45;&gt;n66 -->
<g id="edge52" class="edge">
<title>n42&#45;&gt;n66</title>
<path fill="none" stroke="black" d="M440.95,-431.7C440.84,-423.98 440.71,-414.71 440.58,-406.11"/>
<polygon fill="black" stroke="black" points="444.08,-406.05 440.44,-396.1 437.08,-406.15 444.08,-406.05"/>
</g>
<!-- n41 -->
<g id="node24" class="node">
<title>n41</title>
<ellipse fill="none" stroke="red" cx="567.19" cy="-378" rx="53.09" ry="18"/>
<text text-anchor="middle" x="567.19" y="-374.3" font-family="Times,serif" font-size="14.00">gzclose.o</text>
</g>
<!-- n42&#45;&gt;n41 -->
<g id="edge56" class="edge">
<title>n42&#45;&gt;n41</title>
<path fill="none" stroke="black" d="M467.61,-434.33C486.26,-423.97 511.45,-409.97 531.83,-398.65"/>
<polygon fill="black" stroke="black" points="533.77,-401.57 540.82,-393.65 530.37,-395.45 533.77,-401.57"/>
</g>
<!-- n66&#45;&gt;n54 -->
<g id="edge159" class="edge">
<title>n66&#45;&gt;n54</title>
<path fill="none" stroke="black" d="M480.93,-365.5C488.93,-363.48 497.29,-361.54 505.19,-360 627.92,-336.13 938.61,-298.47 1063.19,-288 1469.19,-253.9 1573.25,-286.65 1979.19,-252 1992.02,-250.91 2005.52,-249.46 2018.77,-247.86"/>
<polygon fill="black" stroke="black" points="2019.34,-251.32 2028.84,-246.62 2018.49,-244.37 2019.34,-251.32"/>
</g>
<!-- n41&#45;&gt;n9 -->
<g id="edge144" class="edge">
<title>n41&#45;&gt;n9</title>
<path fill="none" stroke="black" d="M604.94,-365.24C612.88,-363.16 621.26,-361.26 629.19,-360 836.17,-327.03 1497.46,-311.56 1678.18,-307.88"/>
<polygon fill="black" stroke="black" points="1678.47,-311.38 1688.4,-307.68 1678.33,-304.38 1678.47,-311.38"/>
</g>
<!-- n36 -->
<g id="node25" class="node">
<title>n36</title>
<ellipse fill="none" stroke="green" cx="687.19" cy="-450" rx="50.89" ry="18"/>
<text text-anchor="middle" x="687.19" y="-446.3" font-family="Times,serif" font-size="14.00">gzguts.h</text>
</g>
<!-- n36&#45;&gt;n66 -->
<g id="edge53" class="edge">
<title>n36&#45;&gt;n66</title>
<path fill="none" stroke="black" d="M648.87,-438.14C606.24,-426.06 537.21,-406.49 490.31,-393.2"/>
<polygon fill="black" stroke="black" points="491.24,-389.83 480.66,-390.47 489.33,-396.56 491.24,-389.83"/>
</g>
<!-- n36&#45;&gt;n41 -->
<g id="edge57" class="edge">
<title>n36&#45;&gt;n41</title>
<path fill="none" stroke="black" d="M662.04,-434.33C644.48,-424.08 620.82,-410.28 601.53,-399.03"/>
<polygon fill="black" stroke="black" points="603.13,-395.91 592.73,-393.9 599.61,-401.96 603.13,-395.91"/>
</g>
<!-- n67 -->
<g id="node27" class="node">
<title>n67</title>
<ellipse fill="none" stroke="red" cx="802.19" cy="-378" rx="44.39" ry="18"/>
<text text-anchor="middle" x="802.19" y="-374.3" font-family="Times,serif" font-size="14.00">gzlib.lo</text>
</g>
<!-- n36&#45;&gt;n67 -->
<g id="edge60" class="edge">
<title>n36&#45;&gt;n67</title>
<path fill="none" stroke="black" d="M711.58,-434.15C728.58,-423.81 751.44,-409.9 769.94,-398.63"/>
<polygon fill="black" stroke="black" points="771.91,-401.53 778.63,-393.35 768.27,-395.55 771.91,-401.53"/>
</g>
<!-- n43 -->
<g id="node28" class="node">
<title>n43</title>
<ellipse fill="none" stroke="red" cx="906.19" cy="-378" rx="41.69" ry="18"/>
<text text-anchor="middle" x="906.19" y="-374.3" font-family="Times,serif" font-size="14.00">gzlib.o</text>
</g>
<!-- n36&#45;&gt;n43 -->
<g id="edge64" class="edge">
<title>n36&#45;&gt;n43</title>
<path fill="none" stroke="black" d="M723.95,-437.59C758.03,-426.97 810.1,-410.63 855.19,-396 858.3,-394.99 861.51,-393.94 864.74,-392.88"/>
<polygon fill="black" stroke="black" points="866,-396.15 874.39,-389.69 863.8,-389.51 866,-396.15"/>
</g>
<!-- n68 -->
<g id="node30" class="node">
<title>n68</title>
<ellipse fill="none" stroke="red" cx="312.19" cy="-378" rx="53.89" ry="18"/>
<text text-anchor="middle" x="312.19" y="-374.3" font-family="Times,serif" font-size="14.00">gzread.lo</text>
</g>
<!-- n36&#45;&gt;n68 -->
<g id="edge68" class="edge">
<title>n36&#45;&gt;n68</title>
<path fill="none" stroke="black" d="M649.34,-437.82C641.41,-435.7 633.06,-433.64 625.19,-432 515.3,-409.11 485.14,-418.66 375.19,-396 370.77,-395.09 366.19,-394.05 361.62,-392.94"/>
<polygon fill="black" stroke="black" points="362.23,-389.48 351.68,-390.43 360.52,-396.27 362.23,-389.48"/>
</g>
<!-- n45 -->
<g id="node31" class="node">
<title>n45</title>
<ellipse fill="none" stroke="red" cx="689.19" cy="-378" rx="50.89" ry="18"/>
<text text-anchor="middle" x="689.19" y="-374.3" font-family="Times,serif" font-size="14.00">gzread.o</text>
</g>
<!-- n36&#45;&gt;n45 -->
<g id="edge72" class="edge">
<title>n36&#45;&gt;n45</title>
<path fill="none" stroke="black" d="M687.69,-431.7C687.91,-423.98 688.17,-414.71 688.42,-406.11"/>
<polygon fill="black" stroke="black" points="691.92,-406.2 688.71,-396.1 684.92,-406 691.92,-406.2"/>
</g>
<!-- n69 -->
<g id="node33" class="node">
<title>n69</title>
<ellipse fill="none" stroke="red" cx="57.19" cy="-378" rx="57.39" ry="18"/>
<text text-anchor="middle" x="57.19" y="-374.3" font-family="Times,serif" font-size="14.00">gzwrite.lo</text>
</g>
<!-- n36&#45;&gt;n69 -->
<g id="edge76" class="edge">
<title>n36&#45;&gt;n69</title>
<path fill="none" stroke="black" d="M650.09,-437.55C641.95,-435.4 633.34,-433.39 625.19,-432 404.72,-394.24 343.96,-432.04 123.19,-396 118.14,-395.18 112.91,-394.14 107.71,-393"/>
<polygon fill="black" stroke="black" points="108.33,-389.55 97.79,-390.68 106.73,-396.36 108.33,-389.55"/>
</g>
<!-- n47 -->
<g id="node34" class="node">
<title>n47</title>
<ellipse fill="none" stroke="red" cx="186.19" cy="-378" rx="53.89" ry="18"/>
<text text-anchor="middle" x="186.19" y="-374.3" font-family="Times,serif" font-size="14.00">gzwrite.o</text>
</g>
<!-- n36&#45;&gt;n47 -->
<g id="edge80" class="edge">
<title>n36&#45;&gt;n47</title>
<path fill="none" stroke="black" d="M650.06,-437.7C641.93,-435.54 633.32,-433.49 625.19,-432 460.08,-401.69 414.37,-425.97 249.19,-396 244.5,-395.15 239.64,-394.11 234.8,-392.98"/>
<polygon fill="black" stroke="black" points="235.49,-389.55 224.95,-390.55 233.82,-396.35 235.49,-389.55"/>
</g>
<!-- n63 -->
<g id="node73" class="node">
<title>n63</title>
<ellipse fill="none" stroke="red" cx="2191.19" cy="-378" rx="42.49" ry="18"/>
<text text-anchor="middle" x="2191.19" y="-374.3" font-family="Times,serif" font-size="14.00">zutil.lo</text>
</g>
<!-- n36&#45;&gt;n63 -->
<g id="edge205" class="edge">
<title>n36&#45;&gt;n63</title>
<path fill="none" stroke="black" d="M733.09,-442.24C759.88,-438.56 794.38,-434.31 825.19,-432 1116.71,-410.1 1852.31,-446.77 2140.19,-396 2143.86,-395.35 2147.61,-394.5 2151.35,-393.51"/>
<polygon fill="black" stroke="black" points="2152.49,-396.83 2161.1,-390.65 2150.52,-390.11 2152.49,-396.83"/>
</g>
<!-- n34 -->
<g id="node74" class="node">
<title>n34</title>
<ellipse fill="none" stroke="red" cx="1685.19" cy="-378" rx="39.79" ry="18"/>
<text text-anchor="middle" x="1685.19" y="-374.3" font-family="Times,serif" font-size="14.00">zutil.o</text>
</g>
<!-- n36&#45;&gt;n34 -->
<g id="edge210" class="edge">
<title>n36&#45;&gt;n34</title>
<path fill="none" stroke="black" d="M733.42,-442.39C760.17,-438.79 794.52,-434.57 825.19,-432 1184.74,-401.92 1281.83,-463.84 1636.19,-396 1639.66,-395.34 1643.21,-394.48 1646.75,-393.5"/>
<polygon fill="black" stroke="black" points="1648.02,-396.77 1656.56,-390.49 1645.97,-390.08 1648.02,-396.77"/>
</g>
<!-- n44 -->
<g id="node26" class="node">
<title>n44</title>
<ellipse fill="none" stroke="green" cx="875.19" cy="-450" rx="40.89" ry="18"/>
<text text-anchor="middle" x="875.19" y="-446.3" font-family="Times,serif" font-size="14.00">gzlib.c</text>
</g>
<!-- n44&#45;&gt;n67 -->
<g id="edge61" class="edge">
<title>n44&#45;&gt;n67</title>
<path fill="none" stroke="black" d="M858.99,-433.46C849.33,-424.2 836.87,-412.25 826.09,-401.92"/>
<polygon fill="black" stroke="black" points="828.24,-399.13 818.6,-394.73 823.4,-404.18 828.24,-399.13"/>
</g>
<!-- n44&#45;&gt;n43 -->
<g id="edge65" class="edge">
<title>n44&#45;&gt;n43</title>
<path fill="none" stroke="black" d="M882.7,-432.05C886.28,-423.97 890.64,-414.12 894.63,-405.11"/>
<polygon fill="black" stroke="black" points="897.91,-406.35 898.76,-395.79 891.51,-403.52 897.91,-406.35"/>
</g>
<!-- n67&#45;&gt;n54 -->
<g id="edge160" class="edge">
<title>n67&#45;&gt;n54</title>
<path fill="none" stroke="black" d="M834.13,-365.54C841.01,-363.42 848.29,-361.42 855.19,-360 1346.74,-258.78 1480.56,-308.79 1979.19,-252 1991.33,-250.62 2004.09,-249.06 2016.67,-247.47"/>
<polygon fill="black" stroke="black" points="2017.23,-250.92 2026.7,-246.18 2016.34,-243.98 2017.23,-250.92"/>
</g>
<!-- n43&#45;&gt;n9 -->
<g id="edge145" class="edge">
<title>n43&#45;&gt;n9</title>
<path fill="none" stroke="black" d="M936.26,-365.38C942.75,-363.27 949.63,-361.32 956.19,-360 1095.69,-331.97 1534.42,-313.9 1678.12,-308.62"/>
<polygon fill="black" stroke="black" points="1678.48,-312.11 1688.35,-308.24 1678.23,-305.11 1678.48,-312.11"/>
</g>
<!-- n46 -->
<g id="node29" class="node">
<title>n46</title>
<ellipse fill="none" stroke="green" cx="566.19" cy="-450" rx="50.09" ry="18"/>
<text text-anchor="middle" x="566.19" y="-446.3" font-family="Times,serif" font-size="14.00">gzread.c</text>
</g>
<!-- n46&#45;&gt;n68 -->
<g id="edge69" class="edge">
<title>n46&#45;&gt;n68</title>
<path fill="none" stroke="black" d="M527.62,-438.37C483.34,-426.17 410.61,-406.12 362.07,-392.74"/>
<polygon fill="black" stroke="black" points="362.97,-389.36 352.4,-390.08 361.11,-396.11 362.97,-389.36"/>
</g>
<!-- n46&#45;&gt;n45 -->
<g id="edge73" class="edge">
<title>n46&#45;&gt;n45</title>
<path fill="none" stroke="black" d="M591.68,-434.5C609.86,-424.15 634.53,-410.11 654.51,-398.74"/>
<polygon fill="black" stroke="black" points="656.36,-401.71 663.32,-393.73 652.9,-395.63 656.36,-401.71"/>
</g>
<!-- n68&#45;&gt;n54 -->
<g id="edge161" class="edge">
<title>n68&#45;&gt;n54</title>
<path fill="none" stroke="black" d="M352.08,-365.79C359.73,-363.77 367.69,-361.75 375.19,-360 536.65,-322.38 576.44,-306.47 741.19,-288 1288.22,-226.67 1430.5,-296.02 1979.19,-252 1992.2,-250.96 2005.91,-249.52 2019.34,-247.92"/>
<polygon fill="black" stroke="black" points="2020.04,-251.36 2029.54,-246.66 2019.18,-244.41 2020.04,-251.36"/>
</g>
<!-- n45&#45;&gt;n9 -->
<g id="edge146" class="edge">
<title>n45&#45;&gt;n9</title>
<path fill="none" stroke="black" d="M725.39,-365.35C733.17,-363.24 741.4,-361.3 749.19,-360 931.52,-329.6 1510.72,-312.53 1678.34,-308.14"/>
<polygon fill="black" stroke="black" points="1678.64,-311.64 1688.55,-307.88 1678.46,-304.64 1678.64,-311.64"/>
</g>
<!-- n48 -->
<g id="node32" class="node">
<title>n48</title>
<ellipse fill="none" stroke="green" cx="122.19" cy="-450" rx="53.89" ry="18"/>
<text text-anchor="middle" x="122.19" y="-446.3" font-family="Times,serif" font-size="14.00">gzwrite.c</text>
</g>
<!-- n48&#45;&gt;n69 -->
<g id="edge77" class="edge">
<title>n48&#45;&gt;n69</title>
<path fill="none" stroke="black" d="M106.79,-432.41C98.61,-423.61 88.42,-412.63 79.41,-402.92"/>
<polygon fill="black" stroke="black" points="81.86,-400.42 72.49,-395.47 76.73,-405.18 81.86,-400.42"/>
</g>
<!-- n48&#45;&gt;n47 -->
<g id="edge81" class="edge">
<title>n48&#45;&gt;n47</title>
<path fill="none" stroke="black" d="M137.36,-432.41C145.41,-423.61 155.45,-412.63 164.33,-402.92"/>
<polygon fill="black" stroke="black" points="166.97,-405.21 171.14,-395.47 161.81,-400.49 166.97,-405.21"/>
</g>
<!-- n69&#45;&gt;n54 -->
<g id="edge162" class="edge">
<title>n69&#45;&gt;n54</title>
<path fill="none" stroke="black" d="M99.33,-365.65C107.24,-363.66 115.45,-361.69 123.19,-360 299.67,-321.45 343.49,-306.29 523.19,-288 1167.18,-222.47 1333.85,-302.36 1979.19,-252 1992.21,-250.98 2005.91,-249.56 2019.34,-247.97"/>
<polygon fill="black" stroke="black" points="2020.04,-251.41 2029.54,-246.72 2019.19,-244.46 2020.04,-251.41"/>
</g>
<!-- n47&#45;&gt;n9 -->
<g id="edge147" class="edge">
<title>n47&#45;&gt;n9</title>
<path fill="none" stroke="black" d="M224.55,-365.16C232.62,-363.09 241.13,-361.22 249.19,-360 534.79,-316.91 1461.19,-308.61 1678.35,-307.24"/>
<polygon fill="black" stroke="black" points="1678.46,-310.74 1688.44,-307.18 1678.42,-303.74 1678.46,-310.74"/>
</g>
<!-- n20 -->
<g id="node35" class="node">
<title>n20</title>
<ellipse fill="none" stroke="green" cx="4277.19" cy="-450" rx="51.99" ry="18"/>
<text text-anchor="middle" x="4277.19" y="-446.3" font-family="Times,serif" font-size="14.00">infback.c</text>
</g>
<!-- n58 -->
<g id="node36" class="node">
<title>n58</title>
<ellipse fill="none" stroke="red" cx="4177.19" cy="-378" rx="55.79" ry="18"/>
<text text-anchor="middle" x="4177.19" y="-374.3" font-family="Times,serif" font-size="14.00">infback.lo</text>
</g>
<!-- n20&#45;&gt;n58 -->
<g id="edge84" class="edge">
<title>n20&#45;&gt;n58</title>
<path fill="none" stroke="black" d="M4255,-433.46C4241.24,-423.84 4223.37,-411.32 4208.22,-400.72"/>
<polygon fill="black" stroke="black" points="4209.87,-397.6 4199.67,-394.73 4205.86,-403.34 4209.87,-397.6"/>
</g>
<!-- n19 -->
<g id="node37" class="node">
<title>n19</title>
<ellipse fill="none" stroke="red" cx="4050.19" cy="-378" rx="52.79" ry="18"/>
<text text-anchor="middle" x="4050.19" y="-374.3" font-family="Times,serif" font-size="14.00">infback.o</text>
</g>
<!-- n20&#45;&gt;n19 -->
<g id="edge92" class="edge">
<title>n20&#45;&gt;n19</title>
<path fill="none" stroke="black" d="M4239.71,-437.44C4200.89,-425.47 4140.11,-406.73 4097.89,-393.71"/>
<polygon fill="black" stroke="black" points="4098.7,-390.3 4088.11,-390.69 4096.64,-396.98 4098.7,-390.3"/>
</g>
<!-- n58&#45;&gt;n54 -->
<g id="edge163" class="edge">
<title>n58&#45;&gt;n54</title>
<path fill="none" stroke="black" d="M4136.83,-365.47C4128.72,-363.43 4120.22,-361.48 4112.19,-360 3825.08,-306.92 3750.37,-309.74 3459.19,-288 3005.39,-254.12 2464.12,-241.16 2228.11,-236.86"/>
<polygon fill="black" stroke="black" points="2227.85,-233.36 2217.79,-236.68 2227.73,-240.36 2227.85,-233.36"/>
</g>
<!-- n19&#45;&gt;n9 -->
<g id="edge148" class="edge">
<title>n19&#45;&gt;n9</title>
<path fill="none" stroke="black" d="M4012.8,-365.17C4004.76,-363.07 3996.26,-361.18 3988.19,-360 3761.61,-326.79 2072.2,-310.13 1770.3,-307.4"/>
<polygon fill="black" stroke="black" points="1770.18,-303.9 1760.15,-307.31 1770.12,-310.9 1770.18,-303.9"/>
</g>
<!-- n26 -->
<g id="node38" class="node">
<title>n26</title>
<ellipse fill="none" stroke="green" cx="3558.19" cy="-450" rx="48.19" ry="18"/>
<text text-anchor="middle" x="3558.19" y="-446.3" font-family="Times,serif" font-size="14.00">inffast.c</text>
</g>
<!-- n59 -->
<g id="node40" class="node">
<title>n59</title>
<ellipse fill="none" stroke="red" cx="3694.19" cy="-378" rx="51.19" ry="18"/>
<text text-anchor="middle" x="3694.19" y="-374.3" font-family="Times,serif" font-size="14.00">inffast.lo</text>
</g>
<!-- n26&#45;&gt;n59 -->
<g id="edge100" class="edge">
<title>n26&#45;&gt;n59</title>
<path fill="none" stroke="black" d="M3585.39,-435C3606.1,-424.34 3634.83,-409.56 3657.56,-397.86"/>
<polygon fill="black" stroke="black" points="3659.29,-400.9 3666.58,-393.21 3656.09,-394.68 3659.29,-400.9"/>
</g>
<!-- n25 -->
<g id="node41" class="node">
<title>n25</title>
<ellipse fill="none" stroke="red" cx="3577.19" cy="-378" rx="48.19" ry="18"/>
<text text-anchor="middle" x="3577.19" y="-374.3" font-family="Times,serif" font-size="14.00">inffast.o</text>
</g>
<!-- n26&#45;&gt;n25 -->
<g id="edge107" class="edge">
<title>n26&#45;&gt;n25</title>
<path fill="none" stroke="black" d="M3562.79,-432.05C3564.91,-424.26 3567.47,-414.82 3569.84,-406.08"/>
<polygon fill="black" stroke="black" points="3573.26,-406.84 3572.51,-396.28 3566.51,-405.01 3573.26,-406.84"/>
</g>
<!-- n23 -->
<g id="node39" class="node">
<title>n23</title>
<ellipse fill="none" stroke="green" cx="3917.19" cy="-450" rx="48.99" ry="18"/>
<text text-anchor="middle" x="3917.19" y="-446.3" font-family="Times,serif" font-size="14.00">inffast.h</text>
</g>
<!-- n23&#45;&gt;n58 -->
<g id="edge85" class="edge">
<title>n23&#45;&gt;n58</title>
<path fill="none" stroke="black" d="M3953.63,-437.93C3960.45,-435.91 3967.53,-433.86 3974.19,-432 4035.24,-414.94 4050.87,-412.02 4112.19,-396 4116.5,-394.88 4120.97,-393.71 4125.45,-392.54"/>
<polygon fill="black" stroke="black" points="4126.45,-395.89 4135.24,-389.98 4124.68,-389.12 4126.45,-395.89"/>
</g>
<!-- n23&#45;&gt;n19 -->
<g id="edge93" class="edge">
<title>n23&#45;&gt;n19</title>
<path fill="none" stroke="black" d="M3944.11,-434.83C3964.17,-424.28 3991.78,-409.75 4013.8,-398.15"/>
<polygon fill="black" stroke="black" points="4015.64,-401.14 4022.86,-393.38 4012.38,-394.95 4015.64,-401.14"/>
</g>
<!-- n23&#45;&gt;n59 -->
<g id="edge101" class="edge">
<title>n23&#45;&gt;n59</title>
<path fill="none" stroke="black" d="M3881.37,-437.75C3843.18,-425.77 3782.58,-406.74 3740.73,-393.61"/>
<polygon fill="black" stroke="black" points="3741.64,-390.22 3731.05,-390.57 3739.54,-396.9 3741.64,-390.22"/>
</g>
<!-- n23&#45;&gt;n25 -->
<g id="edge108" class="edge">
<title>n23&#45;&gt;n25</title>
<path fill="none" stroke="black" d="M3881.18,-437.68C3873.94,-435.62 3866.36,-433.62 3859.19,-432 3760.41,-409.71 3732.93,-418.52 3634.19,-396 3630.34,-395.12 3626.36,-394.12 3622.39,-393.07"/>
<polygon fill="black" stroke="black" points="3623.15,-389.64 3612.58,-390.34 3621.27,-396.39 3623.15,-389.64"/>
</g>
<!-- n60 -->
<g id="node45" class="node">
<title>n60</title>
<ellipse fill="none" stroke="red" cx="3928.19" cy="-378" rx="51.19" ry="18"/>
<text text-anchor="middle" x="3928.19" y="-374.3" font-family="Times,serif" font-size="14.00">inflate.lo</text>
</g>
<!-- n23&#45;&gt;n60 -->
<g id="edge114" class="edge">
<title>n23&#45;&gt;n60</title>
<path fill="none" stroke="black" d="M3919.91,-431.7C3921.13,-423.98 3922.58,-414.71 3923.93,-406.11"/>
<polygon fill="black" stroke="black" points="3927.41,-406.53 3925.51,-396.1 3920.5,-405.44 3927.41,-406.53"/>
</g>
<!-- n27 -->
<g id="node46" class="node">
<title>n27</title>
<ellipse fill="none" stroke="red" cx="3811.19" cy="-378" rx="48.19" ry="18"/>
<text text-anchor="middle" x="3811.19" y="-374.3" font-family="Times,serif" font-size="14.00">inflate.o</text>
</g>
<!-- n23&#45;&gt;n27 -->
<g id="edge122" class="edge">
<title>n23&#45;&gt;n27</title>
<path fill="none" stroke="black" d="M3894.46,-433.98C3879.23,-423.93 3858.98,-410.56 3842.27,-399.52"/>
<polygon fill="black" stroke="black" points="3844.17,-396.58 3833.9,-393.99 3840.31,-402.42 3844.17,-396.58"/>
</g>
<!-- n59&#45;&gt;n54 -->
<g id="edge164" class="edge">
<title>n59&#45;&gt;n54</title>
<path fill="none" stroke="black" d="M3656.97,-365.48C3649.48,-363.43 3641.63,-361.49 3634.19,-360 3370.85,-307.23 3301.73,-311.69 3034.19,-288 2743.5,-262.26 2400.3,-246.4 2224.63,-239.34"/>
<polygon fill="black" stroke="black" points="2224.72,-235.84 2214.59,-238.93 2224.44,-242.83 2224.72,-235.84"/>
</g>
<!-- n25&#45;&gt;n9 -->
<g id="edge149" class="edge">
<title>n25&#45;&gt;n9</title>
<path fill="none" stroke="black" d="M3542.87,-365.2C3535.47,-363.1 3527.64,-361.2 3520.19,-360 3168.75,-303.4 2016.44,-305.6 1770.6,-306.74"/>
<polygon fill="black" stroke="black" points="1770.22,-303.24 1760.24,-306.79 1770.26,-310.24 1770.22,-303.24"/>
</g>
<!-- n24 -->
<g id="node42" class="node">
<title>n24</title>
<ellipse fill="none" stroke="green" cx="4153.19" cy="-450" rx="53.89" ry="18"/>
<text text-anchor="middle" x="4153.19" y="-446.3" font-family="Times,serif" font-size="14.00">inffixed.h</text>
</g>
<!-- n24&#45;&gt;n58 -->
<g id="edge86" class="edge">
<title>n24&#45;&gt;n58</title>
<path fill="none" stroke="black" d="M4159,-432.05C4161.71,-424.18 4164.98,-414.62 4168.01,-405.79"/>
<polygon fill="black" stroke="black" points="4171.34,-406.87 4171.27,-396.28 4164.72,-404.6 4171.34,-406.87"/>
</g>
<!-- n24&#45;&gt;n19 -->
<g id="edge94" class="edge">
<title>n24&#45;&gt;n19</title>
<path fill="none" stroke="black" d="M4130.59,-433.64C4116.1,-423.79 4097.1,-410.88 4081.21,-400.08"/>
<polygon fill="black" stroke="black" points="4082.98,-397.05 4072.75,-394.33 4079.05,-402.84 4082.98,-397.05"/>
</g>
<!-- n24&#45;&gt;n60 -->
<g id="edge115" class="edge">
<title>n24&#45;&gt;n60</title>
<path fill="none" stroke="black" d="M4115.03,-437.13C4076.37,-425.1 4016.53,-406.48 3975.03,-393.57"/>
<polygon fill="black" stroke="black" points="3976.01,-390.21 3965.43,-390.58 3973.93,-396.9 3976.01,-390.21"/>
</g>
<!-- n24&#45;&gt;n27 -->
<g id="edge123" class="edge">
<title>n24&#45;&gt;n27</title>
<path fill="none" stroke="black" d="M4113.69,-437.67C4105.94,-435.64 4097.84,-433.65 4090.19,-432 3992.48,-410.95 3965.62,-418.33 3868.19,-396 3864.34,-395.12 3860.37,-394.12 3856.39,-393.06"/>
<polygon fill="black" stroke="black" points="3857.15,-389.64 3846.58,-390.32 3855.28,-396.38 3857.15,-389.64"/>
</g>
<!-- n28 -->
<g id="node43" class="node">
<title>n28</title>
<ellipse fill="none" stroke="green" cx="3802.19" cy="-450" rx="48.19" ry="18"/>
<text text-anchor="middle" x="3802.19" y="-446.3" font-family="Times,serif" font-size="14.00">inflate.c</text>
</g>
<!-- n28&#45;&gt;n60 -->
<g id="edge116" class="edge">
<title>n28&#45;&gt;n60</title>
<path fill="none" stroke="black" d="M3828,-434.67C3846.81,-424.21 3872.52,-409.93 3893.19,-398.45"/>
<polygon fill="black" stroke="black" points="3894.95,-401.47 3901.99,-393.56 3891.55,-395.35 3894.95,-401.47"/>
</g>
<!-- n28&#45;&gt;n27 -->
<g id="edge124" class="edge">
<title>n28&#45;&gt;n27</title>
<path fill="none" stroke="black" d="M3804.42,-431.7C3805.41,-423.98 3806.6,-414.71 3807.71,-406.11"/>
<polygon fill="black" stroke="black" points="3811.19,-406.47 3809,-396.1 3804.25,-405.58 3811.19,-406.47"/>
</g>
<!-- n22 -->
<g id="node44" class="node">
<title>n22</title>
<ellipse fill="none" stroke="green" cx="4032.19" cy="-450" rx="48.99" ry="18"/>
<text text-anchor="middle" x="4032.19" y="-446.3" font-family="Times,serif" font-size="14.00">inflate.h</text>
</g>
<!-- n22&#45;&gt;n58 -->
<g id="edge87" class="edge">
<title>n22&#45;&gt;n58</title>
<path fill="none" stroke="black" d="M4060.5,-435.34C4082.71,-424.61 4113.88,-409.56 4138.42,-397.72"/>
<polygon fill="black" stroke="black" points="4139.99,-400.85 4147.47,-393.35 4136.94,-394.55 4139.99,-400.85"/>
</g>
<!-- n22&#45;&gt;n19 -->
<g id="edge95" class="edge">
<title>n22&#45;&gt;n19</title>
<path fill="none" stroke="black" d="M4036.55,-432.05C4038.56,-424.26 4040.98,-414.82 4043.23,-406.08"/>
<polygon fill="black" stroke="black" points="4046.65,-406.83 4045.75,-396.28 4039.87,-405.09 4046.65,-406.83"/>
</g>
<!-- n22&#45;&gt;n59 -->
<g id="edge102" class="edge">
<title>n22&#45;&gt;n59</title>
<path fill="none" stroke="black" d="M3996.5,-437.59C3989.48,-435.56 3982.14,-433.59 3975.19,-432 3878.2,-409.73 3851.34,-417.6 3754.19,-396 3750.09,-395.09 3745.86,-394.06 3741.62,-392.98"/>
<polygon fill="black" stroke="black" points="3742.36,-389.55 3731.79,-390.37 3740.56,-396.32 3742.36,-389.55"/>
</g>
<!-- n22&#45;&gt;n25 -->
<g id="edge109" class="edge">
<title>n22&#45;&gt;n25</title>
<path fill="none" stroke="black" d="M3997.18,-437.45C3989.97,-435.39 3982.38,-433.44 3975.19,-432 3825.76,-402.09 3783.63,-425.91 3634.19,-396 3630.09,-395.18 3625.86,-394.19 3621.65,-393.11"/>
<polygon fill="black" stroke="black" points="3622.47,-389.71 3611.91,-390.46 3620.64,-396.47 3622.47,-389.71"/>
</g>
<!-- n22&#45;&gt;n60 -->
<g id="edge117" class="edge">
<title>n22&#45;&gt;n60</title>
<path fill="none" stroke="black" d="M4009.88,-433.98C3995.18,-424.09 3975.71,-410.98 3959.47,-400.05"/>
<polygon fill="black" stroke="black" points="3961.08,-396.91 3950.83,-394.23 3957.17,-402.72 3961.08,-396.91"/>
</g>
<!-- n22&#45;&gt;n27 -->
<g id="edge125" class="edge">
<title>n22&#45;&gt;n27</title>
<path fill="none" stroke="black" d="M3996.2,-437.6C3958.04,-425.51 3897.69,-406.4 3856.36,-393.31"/>
<polygon fill="black" stroke="black" points="3857.4,-389.96 3846.81,-390.28 3855.29,-396.64 3857.4,-389.96"/>
</g>
<!-- n60&#45;&gt;n54 -->
<g id="edge165" class="edge">
<title>n60&#45;&gt;n54</title>
<path fill="none" stroke="black" d="M3890.97,-365.44C3883.49,-363.41 3875.63,-361.47 3868.19,-360 3592.15,-305.47 3519.67,-310.6 3239.19,-288 2870.69,-258.31 2433.2,-243.64 2226.98,-237.94"/>
<polygon fill="black" stroke="black" points="2226.83,-234.44 2216.74,-237.66 2226.64,-241.43 2226.83,-234.44"/>
</g>
<!-- n27&#45;&gt;n9 -->
<g id="edge150" class="edge">
<title>n27&#45;&gt;n9</title>
<path fill="none" stroke="black" d="M3777.17,-365.26C3769.69,-363.13 3761.74,-361.2 3754.19,-360 3552.57,-327.88 2053.7,-310.49 1770.34,-307.48"/>
<polygon fill="black" stroke="black" points="1770.05,-303.97 1760.02,-307.37 1769.98,-310.97 1770.05,-303.97"/>
</g>
<!-- n30 -->
<g id="node47" class="node">
<title>n30</title>
<ellipse fill="none" stroke="green" cx="3429.19" cy="-450" rx="54.69" ry="18"/>
<text text-anchor="middle" x="3429.19" y="-446.3" font-family="Times,serif" font-size="14.00">inftrees.c</text>
</g>
<!-- n61 -->
<g id="node49" class="node">
<title>n61</title>
<ellipse fill="none" stroke="red" cx="3453.19" cy="-378" rx="57.69" ry="18"/>
<text text-anchor="middle" x="3453.19" y="-374.3" font-family="Times,serif" font-size="14.00">inftrees.lo</text>
</g>
<!-- n30&#45;&gt;n61 -->
<g id="edge130" class="edge">
<title>n30&#45;&gt;n61</title>
<path fill="none" stroke="black" d="M3435,-432.05C3437.71,-424.18 3440.98,-414.62 3444.01,-405.79"/>
<polygon fill="black" stroke="black" points="3447.34,-406.87 3447.27,-396.28 3440.72,-404.6 3447.34,-406.87"/>
</g>
<!-- n29 -->
<g id="node50" class="node">
<title>n29</title>
<ellipse fill="none" stroke="red" cx="3322.19" cy="-378" rx="55.49" ry="18"/>
<text text-anchor="middle" x="3322.19" y="-374.3" font-family="Times,serif" font-size="14.00">inftrees.o</text>
</g>
<!-- n30&#45;&gt;n29 -->
<g id="edge135" class="edge">
<title>n30&#45;&gt;n29</title>
<path fill="none" stroke="black" d="M3405.71,-433.64C3390.66,-423.79 3370.92,-410.88 3354.41,-400.08"/>
<polygon fill="black" stroke="black" points="3355.91,-396.87 3345.62,-394.33 3352.07,-402.73 3355.91,-396.87"/>
</g>
<!-- n21 -->
<g id="node48" class="node">
<title>n21</title>
<ellipse fill="none" stroke="green" cx="3680.19" cy="-450" rx="55.79" ry="18"/>
<text text-anchor="middle" x="3680.19" y="-446.3" font-family="Times,serif" font-size="14.00">inftrees.h</text>
</g>
<!-- n21&#45;&gt;n58 -->
<g id="edge88" class="edge">
<title>n21&#45;&gt;n58</title>
<path fill="none" stroke="black" d="M3720.54,-437.39C3728.66,-435.36 3737.16,-433.44 3745.19,-432 3906.53,-403.18 3950.86,-424.82 4112.19,-396 4116.97,-395.15 4121.9,-394.12 4126.82,-393.01"/>
<polygon fill="black" stroke="black" points="4127.94,-396.34 4136.85,-390.61 4126.31,-389.53 4127.94,-396.34"/>
</g>
<!-- n21&#45;&gt;n19 -->
<g id="edge96" class="edge">
<title>n21&#45;&gt;n19</title>
<path fill="none" stroke="black" d="M3720.95,-437.62C3728.95,-435.59 3737.31,-433.61 3745.19,-432 3852.17,-410.16 3881.35,-418.48 3988.19,-396 3992.61,-395.07 3997.19,-394.01 4001.75,-392.88"/>
<polygon fill="black" stroke="black" points="4002.86,-396.21 4011.67,-390.33 4001.12,-389.43 4002.86,-396.21"/>
</g>
<!-- n21&#45;&gt;n59 -->
<g id="edge103" class="edge">
<title>n21&#45;&gt;n59</title>
<path fill="none" stroke="black" d="M3683.66,-431.7C3685.2,-423.98 3687.05,-414.71 3688.77,-406.11"/>
<polygon fill="black" stroke="black" points="3692.24,-406.6 3690.77,-396.1 3685.38,-405.22 3692.24,-406.6"/>
</g>
<!-- n21&#45;&gt;n25 -->
<g id="edge110" class="edge">
<title>n21&#45;&gt;n25</title>
<path fill="none" stroke="black" d="M3657.34,-433.46C3642.73,-423.54 3623.63,-410.56 3607.73,-399.75"/>
<polygon fill="black" stroke="black" points="3609.52,-396.74 3599.28,-394.01 3605.59,-402.53 3609.52,-396.74"/>
</g>
<!-- n21&#45;&gt;n60 -->
<g id="edge118" class="edge">
<title>n21&#45;&gt;n60</title>
<path fill="none" stroke="black" d="M3720.91,-437.54C3758.99,-426.82 3817.45,-410.34 3868.19,-396 3871.96,-394.94 3875.85,-393.84 3879.76,-392.73"/>
<polygon fill="black" stroke="black" points="3880.8,-396.07 3889.47,-389.98 3878.89,-389.34 3880.8,-396.07"/>
</g>
<!-- n21&#45;&gt;n27 -->
<g id="edge126" class="edge">
<title>n21&#45;&gt;n27</title>
<path fill="none" stroke="black" d="M3707.98,-434.15C3727.73,-423.6 3754.44,-409.33 3775.73,-397.95"/>
<polygon fill="black" stroke="black" points="3777.62,-400.91 3784.79,-393.11 3774.32,-394.73 3777.62,-400.91"/>
</g>
<!-- n21&#45;&gt;n61 -->
<g id="edge131" class="edge">
<title>n21&#45;&gt;n61</title>
<path fill="none" stroke="black" d="M3641.17,-436.97C3602.8,-425.13 3544.09,-407.03 3502.5,-394.2"/>
<polygon fill="black" stroke="black" points="3503.44,-390.83 3492.85,-391.23 3501.37,-397.52 3503.44,-390.83"/>
</g>
<!-- n21&#45;&gt;n29 -->
<g id="edge136" class="edge">
<title>n21&#45;&gt;n29</title>
<path fill="none" stroke="black" d="M3639.43,-437.67C3631.43,-435.64 3623.07,-433.65 3615.19,-432 3514.34,-410.94 3487.01,-417.25 3386.19,-396 3381.77,-395.07 3377.2,-394.02 3372.63,-392.92"/>
<polygon fill="black" stroke="black" points="3373.22,-389.46 3362.67,-390.43 3371.52,-396.25 3373.22,-389.46"/>
</g>
<!-- n61&#45;&gt;n54 -->
<g id="edge166" class="edge">
<title>n61&#45;&gt;n54</title>
<path fill="none" stroke="black" d="M3411.19,-365.56C3402.94,-363.53 3394.32,-361.57 3386.19,-360 2963.7,-278.25 2451.72,-248.71 2225.43,-239.13"/>
<polygon fill="black" stroke="black" points="2225.34,-235.62 2215.2,-238.7 2225.04,-242.62 2225.34,-235.62"/>
</g>
<!-- n29&#45;&gt;n9 -->
<g id="edge151" class="edge">
<title>n29&#45;&gt;n9</title>
<path fill="none" stroke="black" d="M3283.22,-365.16C3275.03,-363.09 3266.38,-361.21 3258.19,-360 2960.28,-315.86 1992.53,-308.35 1770.07,-307.19"/>
<polygon fill="black" stroke="black" points="1770.07,-303.69 1760.05,-307.14 1770.03,-310.69 1770.07,-303.69"/>
</g>
<!-- n9&#45;&gt;n4 -->
<g id="edge41" class="edge">
<title>n9&#45;&gt;n4</title>
<path fill="none" stroke="black" d="M1695.41,-295.27C1660.83,-283.57 1602.41,-263.82 1561.93,-250.13"/>
<polygon fill="black" stroke="black" points="1562.9,-246.76 1552.3,-246.87 1560.65,-253.39 1562.9,-246.76"/>
</g>
<!-- n9&#45;&gt;n72 -->
<g id="edge46" class="edge">
<title>n9&#45;&gt;n72</title>
<path fill="none" stroke="black" d="M1707.49,-289.81C1697.35,-280.6 1684.21,-268.65 1672.79,-258.27"/>
<polygon fill="black" stroke="black" points="1674.97,-255.52 1665.21,-251.38 1670.26,-260.7 1674.97,-255.52"/>
</g>
<!-- n9&#45;&gt;n54 -->
<g id="edge167" class="edge">
<title>n9&#45;&gt;n54</title>
<path fill="none" stroke="black" d="M1757.27,-298.97C1816.88,-288.1 1943.93,-264.94 2027.68,-249.68"/>
<polygon fill="black" stroke="black" points="2028.46,-253.09 2037.67,-247.86 2027.2,-246.21 2028.46,-253.09"/>
</g>
<!-- n49 -->
<g id="node53" class="node">
<title>n49</title>
<ellipse fill="none" stroke="red" cx="1777.19" cy="-234" rx="50.89" ry="18"/>
<text text-anchor="middle" x="1777.19" y="-230.3" font-family="Times,serif" font-size="14.00">minigzip</text>
</g>
<!-- n9&#45;&gt;n49 -->
<g id="edge171" class="edge">
<title>n9&#45;&gt;n49</title>
<path fill="none" stroke="black" d="M1736.49,-288.76C1743.02,-280.14 1751.18,-269.36 1758.47,-259.73"/>
<polygon fill="black" stroke="black" points="1761.36,-261.72 1764.6,-251.63 1755.77,-257.49 1761.36,-261.72"/>
</g>
<!-- n74 -->
<g id="node55" class="node">
<title>n74</title>
<ellipse fill="none" stroke="red" cx="1908.19" cy="-234" rx="62.29" ry="18"/>
<text text-anchor="middle" x="1908.19" y="-230.3" font-family="Times,serif" font-size="14.00">minigzip64</text>
</g>
<!-- n9&#45;&gt;n74 -->
<g id="edge176" class="edge">
<title>n9&#45;&gt;n74</title>
<path fill="none" stroke="black" d="M1751.74,-294.52C1780.97,-283.4 1827.65,-265.64 1862.43,-252.41"/>
<polygon fill="black" stroke="black" points="1863.79,-255.64 1871.89,-248.81 1861.3,-249.09 1863.79,-255.64"/>
</g>
<!-- n54&#45;&gt;n53 -->
<g id="edge51" class="edge">
<title>n54&#45;&gt;n53</title>
<path fill="none" stroke="black" d="M2076.31,-216.59C2056.48,-206.38 2030.87,-193.2 2010.01,-182.47"/>
<polygon fill="black" stroke="black" points="2011.59,-179.34 2001.1,-177.88 2008.39,-185.57 2011.59,-179.34"/>
</g>
<!-- n70 -->
<g id="node57" class="node">
<title>n70</title>
<ellipse fill="none" stroke="red" cx="2112.19" cy="-162" rx="61.99" ry="18"/>
<text text-anchor="middle" x="2112.19" y="-158.3" font-family="Times,serif" font-size="14.00">minigzipsh</text>
</g>
<!-- n54&#45;&gt;n70 -->
<g id="edge181" class="edge">
<title>n54&#45;&gt;n70</title>
<path fill="none" stroke="black" d="M2109.18,-215.7C2109.62,-207.98 2110.15,-198.71 2110.65,-190.11"/>
<polygon fill="black" stroke="black" points="2114.14,-190.29 2111.22,-180.1 2107.15,-189.89 2114.14,-190.29"/>
</g>
<!-- n49&#45;&gt;n3 -->
<g id="edge186" class="edge">
<title>n49&#45;&gt;n3</title>
<path fill="none" stroke="black" d="M1775.96,-215.7C1775.41,-207.98 1774.75,-198.71 1774.13,-190.11"/>
<polygon fill="black" stroke="black" points="1777.62,-189.83 1773.42,-180.1 1770.64,-190.33 1777.62,-189.83"/>
</g>
<!-- n50 -->
<g id="node54" class="node">
<title>n50</title>
<ellipse fill="none" stroke="red" cx="2310.19" cy="-378" rx="59.29" ry="18"/>
<text text-anchor="middle" x="2310.19" y="-374.3" font-family="Times,serif" font-size="14.00">minigzip.o</text>
</g>
<!-- n50&#45;&gt;n49 -->
<g id="edge172" class="edge">
<title>n50&#45;&gt;n49</title>
<path fill="none" stroke="black" d="M2266.43,-365.71C2182.88,-344.1 1994.9,-295.18 1837.19,-252 1833.2,-250.91 1829.06,-249.76 1824.91,-248.6"/>
<polygon fill="black" stroke="black" points="1825.83,-245.22 1815.26,-245.89 1823.94,-251.96 1825.83,-245.22"/>
</g>
<!-- n50&#45;&gt;n70 -->
<g id="edge182" class="edge">
<title>n50&#45;&gt;n70</title>
<path fill="none" stroke="black" d="M2305.41,-359.67C2295.7,-327.43 2270.82,-257.74 2227.19,-216 2209.7,-199.26 2185.98,-187.12 2164.62,-178.71"/>
<polygon fill="black" stroke="black" points="2165.59,-175.34 2155,-175.11 2163.14,-181.89 2165.59,-175.34"/>
</g>
<!-- n74&#45;&gt;n71 -->
<g id="edge13" class="edge">
<title>n74&#45;&gt;n71</title>
<path fill="none" stroke="black" d="M1896.58,-216.05C1890.71,-207.5 1883.49,-196.97 1877.03,-187.56"/>
<polygon fill="black" stroke="black" points="1879.92,-185.57 1871.38,-179.31 1874.15,-189.53 1879.92,-185.57"/>
</g>
<!-- n75 -->
<g id="node56" class="node">
<title>n75</title>
<ellipse fill="none" stroke="red" cx="2458.19" cy="-378" rx="70.69" ry="18"/>
<text text-anchor="middle" x="2458.19" y="-374.3" font-family="Times,serif" font-size="14.00">minigzip64.o</text>
</g>
<!-- n75&#45;&gt;n74 -->
<g id="edge177" class="edge">
<title>n75&#45;&gt;n74</title>
<path fill="none" stroke="black" d="M2410.35,-364.65C2308.47,-338.34 2070.62,-276.94 1962.92,-249.13"/>
<polygon fill="black" stroke="black" points="1963.78,-245.74 1953.22,-246.63 1962.03,-252.51 1963.78,-245.74"/>
</g>
<!-- n70&#45;&gt;n52 -->
<g id="edge184" class="edge">
<title>n70&#45;&gt;n52</title>
<path fill="none" stroke="black" d="M2082.5,-146.15C2060.64,-135.22 2030.8,-120.3 2007.68,-108.74"/>
<polygon fill="black" stroke="black" points="2009.05,-105.51 1998.54,-104.17 2005.92,-111.77 2009.05,-105.51"/>
</g>
<!-- n52&#45;&gt;n2 -->
<g id="edge10" class="edge">
<title>n52&#45;&gt;n2</title>
<path fill="none" stroke="black" d="M1949.26,-74.67C1931.47,-63.55 1906.74,-48.09 1887.86,-36.29"/>
<polygon fill="black" stroke="black" points="1889.71,-33.32 1879.37,-30.99 1886,-39.25 1889.71,-33.32"/>
</g>
<!-- n3&#45;&gt;n2 -->
<g id="edge11" class="edge">
<title>n3&#45;&gt;n2</title>
<path fill="none" stroke="black" d="M1782.46,-144.43C1797.84,-119.61 1826.97,-72.61 1844.88,-43.72"/>
<polygon fill="black" stroke="black" points="1847.97,-45.37 1850.26,-35.03 1842.02,-41.68 1847.97,-45.37"/>
</g>
<!-- n6 -->
<g id="node60" class="node">
<title>n6</title>
<ellipse fill="none" stroke="green" cx="1054.19" cy="-450" rx="78.79" ry="18"/>
<text text-anchor="middle" x="1054.19" y="-446.3" font-family="Times,serif" font-size="14.00">test/example.c</text>
</g>
<!-- n6&#45;&gt;n5 -->
<g id="edge42" class="edge">
<title>n6&#45;&gt;n5</title>
<path fill="none" stroke="black" d="M1046.69,-432.05C1043.16,-424.09 1038.88,-414.41 1034.93,-405.51"/>
<polygon fill="black" stroke="black" points="1038.09,-404 1030.85,-396.28 1031.69,-406.84 1038.09,-404"/>
</g>
<!-- n6&#45;&gt;n73 -->
<g id="edge47" class="edge">
<title>n6&#45;&gt;n73</title>
<path fill="none" stroke="black" d="M1080.35,-432.94C1096.25,-423.18 1116.73,-410.6 1133.91,-400.05"/>
<polygon fill="black" stroke="black" points="1135.87,-402.96 1142.56,-394.74 1132.2,-396.99 1135.87,-402.96"/>
</g>
<!-- n51 -->
<g id="node61" class="node">
<title>n51</title>
<ellipse fill="none" stroke="green" cx="2384.19" cy="-450" rx="79.09" ry="18"/>
<text text-anchor="middle" x="2384.19" y="-446.3" font-family="Times,serif" font-size="14.00">test/minigzip.c</text>
</g>
<!-- n51&#45;&gt;n50 -->
<g id="edge173" class="edge">
<title>n51&#45;&gt;n50</title>
<path fill="none" stroke="black" d="M2366.66,-432.41C2357.1,-423.37 2345.11,-412.03 2334.65,-402.13"/>
<polygon fill="black" stroke="black" points="2337.02,-399.56 2327.35,-395.23 2332.21,-404.64 2337.02,-399.56"/>
</g>
<!-- n51&#45;&gt;n75 -->
<g id="edge178" class="edge">
<title>n51&#45;&gt;n75</title>
<path fill="none" stroke="black" d="M2401.73,-432.41C2411.22,-423.43 2423.11,-412.19 2433.52,-402.34"/>
<polygon fill="black" stroke="black" points="2435.92,-404.88 2440.78,-395.47 2431.11,-399.8 2435.92,-404.88"/>
</g>
<!-- n32 -->
<g id="node62" class="node">
<title>n32</title>
<ellipse fill="none" stroke="green" cx="3298.19" cy="-450" rx="42.49" ry="18"/>
<text text-anchor="middle" x="3298.19" y="-446.3" font-family="Times,serif" font-size="14.00">trees.c</text>
</g>
<!-- n32&#45;&gt;n62 -->
<g id="edge188" class="edge">
<title>n32&#45;&gt;n62</title>
<path fill="none" stroke="black" d="M3278.05,-434.15C3264.75,-424.36 3247.12,-411.37 3232.31,-400.45"/>
<polygon fill="black" stroke="black" points="3234.1,-397.42 3223.97,-394.31 3229.94,-403.06 3234.1,-397.42"/>
</g>
<!-- n32&#45;&gt;n31 -->
<g id="edge194" class="edge">
<title>n32&#45;&gt;n31</title>
<path fill="none" stroke="black" d="M3266.19,-437.91C3231.57,-425.91 3176.23,-406.74 3138.15,-393.54"/>
<polygon fill="black" stroke="black" points="3138.98,-390.12 3128.39,-390.16 3136.69,-396.74 3138.98,-390.12"/>
</g>
<!-- n33 -->
<g id="node63" class="node">
<title>n33</title>
<ellipse fill="none" stroke="green" cx="3095.19" cy="-450" rx="43.59" ry="18"/>
<text text-anchor="middle" x="3095.19" y="-446.3" font-family="Times,serif" font-size="14.00">trees.h</text>
</g>
<!-- n33&#45;&gt;n62 -->
<g id="edge189" class="edge">
<title>n33&#45;&gt;n62</title>
<path fill="none" stroke="black" d="M3117.57,-434.5C3133.25,-424.33 3154.42,-410.61 3171.79,-399.36"/>
<polygon fill="black" stroke="black" points="3173.99,-402.1 3180.47,-393.73 3170.18,-396.23 3173.99,-402.1"/>
</g>
<!-- n33&#45;&gt;n31 -->
<g id="edge195" class="edge">
<title>n33&#45;&gt;n31</title>
<path fill="none" stroke="black" d="M3095.44,-431.7C3095.55,-423.98 3095.68,-414.71 3095.81,-406.11"/>
<polygon fill="black" stroke="black" points="3099.31,-406.15 3095.95,-396.1 3092.31,-406.05 3099.31,-406.15"/>
</g>
<!-- n62&#45;&gt;n54 -->
<g id="edge168" class="edge">
<title>n62&#45;&gt;n54</title>
<path fill="none" stroke="black" d="M3169.39,-365.62C3162.44,-363.54 3155.12,-361.54 3148.19,-360 2816.01,-285.9 2413.7,-253.34 2221.32,-241.18"/>
<polygon fill="black" stroke="black" points="2221.4,-237.68 2211.2,-240.55 2220.96,-244.67 2221.4,-237.68"/>
</g>
<!-- n31&#45;&gt;n9 -->
<g id="edge152" class="edge">
<title>n31&#45;&gt;n9</title>
<path fill="none" stroke="black" d="M3065.48,-365.41C3058.57,-363.24 3051.21,-361.26 3044.19,-360 2791.82,-314.58 1973.21,-308.07 1770.11,-307.15"/>
<polygon fill="black" stroke="black" points="1770.1,-303.65 1760.09,-307.11 1770.07,-310.65 1770.1,-303.65"/>
</g>
<!-- n40 -->
<g id="node66" class="node">
<title>n40</title>
<ellipse fill="none" stroke="green" cx="1826.19" cy="-450" rx="58.49" ry="18"/>
<text text-anchor="middle" x="1826.19" y="-446.3" font-family="Times,serif" font-size="14.00">uncompr.c</text>
</g>
<!-- n65 -->
<g id="node67" class="node">
<title>n65</title>
<ellipse fill="none" stroke="red" cx="2069.19" cy="-378" rx="61.99" ry="18"/>
<text text-anchor="middle" x="2069.19" y="-374.3" font-family="Times,serif" font-size="14.00">uncompr.lo</text>
</g>
<!-- n40&#45;&gt;n65 -->
<g id="edge199" class="edge">
<title>n40&#45;&gt;n65</title>
<path fill="none" stroke="black" d="M1867.42,-437.13C1908.71,-425.23 1972.39,-406.89 2017.14,-393.99"/>
<polygon fill="black" stroke="black" points="2018.31,-397.3 2026.95,-391.17 2016.38,-390.57 2018.31,-397.3"/>
</g>
<!-- n39 -->
<g id="node68" class="node">
<title>n39</title>
<ellipse fill="none" stroke="red" cx="1568.19" cy="-378" rx="59.29" ry="18"/>
<text text-anchor="middle" x="1568.19" y="-374.3" font-family="Times,serif" font-size="14.00">uncompr.o</text>
</g>
<!-- n40&#45;&gt;n39 -->
<g id="edge202" class="edge">
<title>n40&#45;&gt;n39</title>
<path fill="none" stroke="black" d="M1783.88,-437.52C1739.3,-425.42 1669.02,-406.36 1620.88,-393.29"/>
<polygon fill="black" stroke="black" points="1621.53,-389.84 1610.96,-390.6 1619.7,-396.6 1621.53,-389.84"/>
</g>
<!-- n65&#45;&gt;n54 -->
<g id="edge169" class="edge">
<title>n65&#45;&gt;n54</title>
<path fill="none" stroke="black" d="M2073.9,-359.87C2080.58,-335.56 2092.86,-290.82 2100.78,-262.01"/>
<polygon fill="black" stroke="black" points="2104.2,-262.76 2103.47,-252.19 2097.45,-260.91 2104.2,-262.76"/>
</g>
<!-- n39&#45;&gt;n9 -->
<g id="edge153" class="edge">
<title>n39&#45;&gt;n9</title>
<path fill="none" stroke="black" d="M1600.14,-362.67C1626.02,-351.05 1662.44,-334.71 1689.13,-322.74"/>
<polygon fill="black" stroke="black" points="1690.79,-325.83 1698.48,-318.54 1687.92,-319.44 1690.79,-325.83"/>
</g>
<!-- n8 -->
<g id="node69" class="node">
<title>n8</title>
<ellipse fill="none" stroke="green" cx="2075.19" cy="-450" rx="43.59" ry="18"/>
<text text-anchor="middle" x="2075.19" y="-446.3" font-family="Times,serif" font-size="14.00">zconf.h</text>
</g>
<!-- n8&#45;&gt;n55 -->
<g id="edge2" class="edge">
<title>n8&#45;&gt;n55</title>
<path fill="none" stroke="black" d="M2109.35,-438.79C2119.22,-436.18 2130.06,-433.66 2140.19,-432 2371.01,-394.25 2434.31,-433.33 2665.19,-396 2670.18,-395.19 2675.33,-394.19 2680.46,-393.06"/>
<polygon fill="black" stroke="black" points="2681.3,-396.46 2690.25,-390.79 2679.72,-389.64 2681.3,-396.46"/>
</g>
<!-- n8&#45;&gt;n10 -->
<g id="edge6" class="edge">
<title>n8&#45;&gt;n10</title>
<path fill="none" stroke="black" d="M2109.71,-438.84C2119.49,-436.27 2130.2,-433.75 2140.19,-432 2315.15,-401.42 2363.36,-427.25 2538.19,-396 2542.83,-395.17 2547.62,-394.16 2552.39,-393.06"/>
<polygon fill="black" stroke="black" points="2553.24,-396.45 2562.11,-390.67 2551.57,-389.66 2553.24,-396.45"/>
</g>
<!-- n8&#45;&gt;n64 -->
<g id="edge15" class="edge">
<title>n8&#45;&gt;n64</title>
<path fill="none" stroke="black" d="M2047.32,-436.16C2024.19,-425.51 1990.96,-410.21 1964.7,-398.11"/>
<polygon fill="black" stroke="black" points="1965.92,-394.82 1955.38,-393.82 1962.99,-401.18 1965.92,-394.82"/>
</g>
<!-- n8&#45;&gt;n37 -->
<g id="edge18" class="edge">
<title>n8&#45;&gt;n37</title>
<path fill="none" stroke="black" d="M2041.24,-438.7C2031.61,-436.13 2021.06,-433.64 2011.19,-432 1786.61,-394.61 1725.33,-429.93 1500.19,-396 1494.42,-395.13 1488.44,-394.04 1482.48,-392.84"/>
<polygon fill="black" stroke="black" points="1483.05,-389.39 1472.54,-390.73 1481.6,-396.23 1483.05,-389.39"/>
</g>
<!-- n8&#45;&gt;n56 -->
<g id="edge22" class="edge">
<title>n8&#45;&gt;n56</title>
<path fill="none" stroke="black" d="M2039.72,-439.29C2030.45,-436.83 2020.47,-434.25 2011.19,-432 1939.1,-414.47 1920.01,-414.61 1848.19,-396 1844.42,-395.02 1840.52,-393.96 1836.62,-392.87"/>
<polygon fill="black" stroke="black" points="1837.54,-389.49 1826.96,-390.1 1835.61,-396.22 1837.54,-389.49"/>
</g>
<!-- n8&#45;&gt;n13 -->
<g id="edge27" class="edge">
<title>n8&#45;&gt;n13</title>
<path fill="none" stroke="black" d="M2041.26,-438.6C2031.63,-436.03 2021.07,-433.57 2011.19,-432 1722.36,-386.22 1641.92,-448.32 1354.19,-396 1350.28,-395.29 1346.26,-394.38 1342.25,-393.35"/>
<polygon fill="black" stroke="black" points="1342.99,-389.92 1332.42,-390.59 1341.1,-396.66 1342.99,-389.92"/>
</g>
<!-- n8&#45;&gt;n57 -->
<g id="edge32" class="edge">
<title>n8&#45;&gt;n57</title>
<path fill="none" stroke="black" d="M2109.32,-438.64C2119.2,-436.04 2130.05,-433.54 2140.19,-432 2482.4,-379.92 2576.19,-449.4 2918.19,-396 2922.98,-395.25 2927.92,-394.28 2932.84,-393.18"/>
<polygon fill="black" stroke="black" points="2933.93,-396.52 2942.83,-390.77 2932.29,-389.71 2933.93,-396.52"/>
</g>
<!-- n8&#45;&gt;n16 -->
<g id="edge37" class="edge">
<title>n8&#45;&gt;n16</title>
<path fill="none" stroke="black" d="M2109.33,-438.7C2119.2,-436.09 2130.05,-433.59 2140.19,-432 2429.56,-386.72 2509.31,-444.22 2798.19,-396 2802.7,-395.25 2807.35,-394.28 2811.98,-393.19"/>
<polygon fill="black" stroke="black" points="2813.17,-396.5 2822,-390.65 2811.45,-389.72 2813.17,-396.5"/>
</g>
<!-- n8&#45;&gt;n5 -->
<g id="edge43" class="edge">
<title>n8&#45;&gt;n5</title>
<path fill="none" stroke="black" d="M2041.28,-438.5C2031.65,-435.93 2021.09,-433.49 2011.19,-432 1605.67,-370.99 1494.95,-455.48 1089.19,-396 1084.13,-395.26 1078.89,-394.28 1073.68,-393.17"/>
<polygon fill="black" stroke="black" points="1074.29,-389.72 1063.76,-390.89 1072.72,-396.54 1074.29,-389.72"/>
</g>
<!-- n8&#45;&gt;n73 -->
<g id="edge48" class="edge">
<title>n8&#45;&gt;n73</title>
<path fill="none" stroke="black" d="M2041.27,-438.55C2031.64,-435.98 2021.08,-433.53 2011.19,-432 1674.81,-380.02 1583.66,-440.4 1246.19,-396 1239.97,-395.18 1233.51,-394.12 1227.09,-392.93"/>
<polygon fill="black" stroke="black" points="1227.56,-389.45 1217.07,-390.96 1226.21,-396.32 1227.56,-389.45"/>
</g>
<!-- n8&#45;&gt;n66 -->
<g id="edge54" class="edge">
<title>n8&#45;&gt;n66</title>
<path fill="none" stroke="black" d="M2041.62,-438.49C2031.9,-435.88 2021.21,-433.43 2011.19,-432 1348.39,-337.4 1168.18,-489.33 505.19,-396 500.06,-395.28 494.74,-394.29 489.47,-393.16"/>
<polygon fill="black" stroke="black" points="489.96,-389.68 479.43,-390.82 488.37,-396.5 489.96,-389.68"/>
</g>
<!-- n8&#45;&gt;n41 -->
<g id="edge58" class="edge">
<title>n8&#45;&gt;n41</title>
<path fill="none" stroke="black" d="M2041.62,-438.51C2031.9,-435.9 2021.21,-433.44 2011.19,-432 1403.02,-344.54 1237.01,-485.89 629.19,-396 624.47,-395.3 619.6,-394.36 614.76,-393.28"/>
<polygon fill="black" stroke="black" points="615.46,-389.85 604.92,-390.9 613.82,-396.66 615.46,-389.85"/>
</g>
<!-- n8&#45;&gt;n67 -->
<g id="edge62" class="edge">
<title>n8&#45;&gt;n67</title>
<path fill="none" stroke="black" d="M2041.62,-438.54C2031.9,-435.93 2021.21,-433.47 2011.19,-432 1502.59,-357.53 1361.75,-483.35 855.19,-396 851.34,-395.34 847.38,-394.46 843.45,-393.45"/>
<polygon fill="black" stroke="black" points="844.36,-390.07 833.78,-390.72 842.46,-396.8 844.36,-390.07"/>
</g>
<!-- n8&#45;&gt;n43 -->
<g id="edge66" class="edge">
<title>n8&#45;&gt;n43</title>
<path fill="none" stroke="black" d="M2041.28,-438.47C2031.65,-435.9 2021.09,-433.46 2011.19,-432 1547.08,-363.34 1417.7,-480.42 956.19,-396 952.75,-395.37 949.23,-394.55 945.72,-393.61"/>
<polygon fill="black" stroke="black" points="946.54,-390.21 935.96,-390.71 944.54,-396.91 946.54,-390.21"/>
</g>
<!-- n8&#45;&gt;n68 -->
<g id="edge70" class="edge">
<title>n8&#45;&gt;n68</title>
<path fill="none" stroke="black" d="M2041.62,-438.48C2031.9,-435.87 2021.21,-433.42 2011.19,-432 1291.11,-329.92 1095.08,-499.49 375.19,-396 370.21,-395.28 365.05,-394.3 359.93,-393.17"/>
<polygon fill="black" stroke="black" points="360.74,-389.76 350.2,-390.84 359.11,-396.57 360.74,-389.76"/>
</g>
<!-- n8&#45;&gt;n45 -->
<g id="edge74" class="edge">
<title>n8&#45;&gt;n45</title>
<path fill="none" stroke="black" d="M2041.62,-438.52C2031.9,-435.92 2021.21,-433.45 2011.19,-432 1455.89,-351.44 1303.82,-481.13 749.19,-396 744.68,-395.31 740.02,-394.38 735.39,-393.32"/>
<polygon fill="black" stroke="black" points="735.92,-389.84 725.37,-390.8 734.21,-396.63 735.92,-389.84"/>
</g>
<!-- n8&#45;&gt;n69 -->
<g id="edge78" class="edge">
<title>n8&#45;&gt;n69</title>
<path fill="none" stroke="black" d="M2041.63,-438.46C2031.91,-435.85 2021.21,-433.41 2011.19,-432 1595.63,-373.71 538.98,-452.72 123.19,-396 118.05,-395.3 112.73,-394.34 107.45,-393.23"/>
<polygon fill="black" stroke="black" points="107.91,-389.74 97.39,-390.94 106.36,-396.57 107.91,-389.74"/>
</g>
<!-- n8&#45;&gt;n47 -->
<g id="edge82" class="edge">
<title>n8&#45;&gt;n47</title>
<path fill="none" stroke="black" d="M2041.63,-438.47C2031.91,-435.86 2021.21,-433.41 2011.19,-432 1623.39,-377.34 636.89,-451.42 249.19,-396 244.21,-395.29 239.05,-394.31 233.93,-393.18"/>
<polygon fill="black" stroke="black" points="234.74,-389.77 224.2,-390.85 233.11,-396.58 234.74,-389.77"/>
</g>
<!-- n8&#45;&gt;n58 -->
<g id="edge89" class="edge">
<title>n8&#45;&gt;n58</title>
<path fill="none" stroke="black" d="M2108.96,-438.55C2118.92,-435.9 2129.91,-433.42 2140.19,-432 2574.38,-372.13 3678.01,-455.87 4112.19,-396 4117.34,-395.29 4122.65,-394.32 4127.93,-393.19"/>
<polygon fill="black" stroke="black" points="4129.02,-396.53 4137.97,-390.86 4127.44,-389.71 4129.02,-396.53"/>
</g>
<!-- n8&#45;&gt;n19 -->
<g id="edge97" class="edge">
<title>n8&#45;&gt;n19</title>
<path fill="none" stroke="black" d="M2108.96,-438.55C2118.92,-435.91 2129.91,-433.42 2140.19,-432 2547.05,-375.64 3581.67,-454.76 3988.19,-396 3992.98,-395.31 3997.93,-394.36 4002.84,-393.27"/>
<polygon fill="black" stroke="black" points="4003.91,-396.61 4012.81,-390.85 4002.26,-389.81 4003.91,-396.61"/>
</g>
<!-- n8&#45;&gt;n59 -->
<g id="edge104" class="edge">
<title>n8&#45;&gt;n59</title>
<path fill="none" stroke="black" d="M2108.97,-438.58C2118.93,-435.94 2129.92,-433.45 2140.19,-432 2797.89,-339.35 2977.47,-495.32 3634.19,-396 3638.71,-395.32 3643.37,-394.4 3648,-393.34"/>
<polygon fill="black" stroke="black" points="3649.18,-396.65 3658.03,-390.83 3647.48,-389.86 3649.18,-396.65"/>
</g>
<!-- n8&#45;&gt;n25 -->
<g id="edge111" class="edge">
<title>n8&#45;&gt;n25</title>
<path fill="none" stroke="black" d="M2108.97,-438.6C2118.93,-435.96 2129.92,-433.46 2140.19,-432 2747.65,-345.81 2914.29,-492.51 3520.19,-396 3524.44,-395.32 3528.81,-394.42 3533.16,-393.38"/>
<polygon fill="black" stroke="black" points="3534.39,-396.67 3543.17,-390.74 3532.61,-389.9 3534.39,-396.67"/>
</g>
<!-- n8&#45;&gt;n60 -->
<g id="edge119" class="edge">
<title>n8&#45;&gt;n60</title>
<path fill="none" stroke="black" d="M2108.96,-438.56C2118.92,-435.92 2129.91,-433.43 2140.19,-432 2520.61,-379.04 3488.34,-452.81 3868.19,-396 3872.71,-395.32 3877.37,-394.41 3882,-393.35"/>
<polygon fill="black" stroke="black" points="3883.18,-396.67 3892.03,-390.85 3881.48,-389.88 3883.18,-396.67"/>
</g>
<!-- n8&#45;&gt;n27 -->
<g id="edge127" class="edge">
<title>n8&#45;&gt;n27</title>
<path fill="none" stroke="black" d="M2108.96,-438.57C2118.93,-435.93 2129.91,-433.44 2140.19,-432 2495.49,-382.27 3399.8,-451.77 3754.19,-396 3758.44,-395.33 3762.81,-394.43 3767.16,-393.39"/>
<polygon fill="black" stroke="black" points="3768.39,-396.69 3777.18,-390.76 3766.61,-389.92 3768.39,-396.69"/>
</g>
<!-- n8&#45;&gt;n61 -->
<g id="edge132" class="edge">
<title>n8&#45;&gt;n61</title>
<path fill="none" stroke="black" d="M2108.97,-438.62C2118.93,-435.98 2129.92,-433.47 2140.19,-432 2688.6,-353.4 2837.51,-472.59 3386.19,-396 3391.54,-395.25 3397.08,-394.24 3402.58,-393.09"/>
<polygon fill="black" stroke="black" points="3403.39,-396.49 3412.38,-390.87 3401.85,-389.66 3403.39,-396.49"/>
</g>
<!-- n8&#45;&gt;n29 -->
<g id="edge137" class="edge">
<title>n8&#45;&gt;n29</title>
<path fill="none" stroke="black" d="M2108.97,-438.64C2118.93,-436 2129.92,-433.49 2140.19,-432 2632.2,-360.66 2766.33,-468.28 3258.19,-396 3263.19,-395.27 3268.35,-394.29 3273.47,-393.16"/>
<polygon fill="black" stroke="black" points="3274.3,-396.56 3283.23,-390.86 3272.69,-389.75 3274.3,-396.56"/>
</g>
<!-- n8&#45;&gt;n50 -->
<g id="edge174" class="edge">
<title>n8&#45;&gt;n50</title>
<path fill="none" stroke="black" d="M2109.37,-438.82C2148.86,-427.06 2214.23,-407.59 2259.61,-394.07"/>
<polygon fill="black" stroke="black" points="2260.68,-397.4 2269.26,-391.19 2258.68,-390.69 2260.68,-397.4"/>
</g>
<!-- n8&#45;&gt;n75 -->
<g id="edge179" class="edge">
<title>n8&#45;&gt;n75</title>
<path fill="none" stroke="black" d="M2110.12,-439.14C2119.81,-436.6 2130.37,-434.02 2140.19,-432 2244.98,-410.44 2272.94,-415.13 2378.19,-396 2384.25,-394.9 2390.54,-393.69 2396.82,-392.43"/>
<polygon fill="black" stroke="black" points="2397.54,-395.85 2406.64,-390.42 2396.14,-388.99 2397.54,-395.85"/>
</g>
<!-- n8&#45;&gt;n62 -->
<g id="edge190" class="edge">
<title>n8&#45;&gt;n62</title>
<path fill="none" stroke="black" d="M2109.31,-438.57C2119.18,-435.97 2130.04,-433.49 2140.19,-432 2583.73,-366.89 2706.2,-470.84 3148.19,-396 3152.3,-395.31 3156.52,-394.39 3160.71,-393.34"/>
<polygon fill="black" stroke="black" points="3161.66,-396.71 3170.38,-390.69 3159.81,-389.95 3161.66,-396.71"/>
</g>
<!-- n8&#45;&gt;n31 -->
<g id="edge196" class="edge">
<title>n8&#45;&gt;n31</title>
<path fill="none" stroke="black" d="M2109.32,-438.6C2119.19,-435.99 2130.04,-433.51 2140.19,-432 2537.91,-372.78 2648.44,-467.15 3044.19,-396 3047.92,-395.33 3051.74,-394.46 3055.55,-393.46"/>
<polygon fill="black" stroke="black" points="3056.85,-396.73 3065.48,-390.59 3054.9,-390 3056.85,-396.73"/>
</g>
<!-- n8&#45;&gt;n65 -->
<g id="edge200" class="edge">
<title>n8&#45;&gt;n65</title>
<path fill="none" stroke="black" d="M2073.71,-431.7C2073.05,-423.98 2072.26,-414.71 2071.52,-406.11"/>
<polygon fill="black" stroke="black" points="2075,-405.77 2070.66,-396.1 2068.03,-406.37 2075,-405.77"/>
</g>
<!-- n8&#45;&gt;n39 -->
<g id="edge203" class="edge">
<title>n8&#45;&gt;n39</title>
<path fill="none" stroke="black" d="M2040.88,-438.78C2031.34,-436.24 2020.93,-433.75 2011.19,-432 1846.4,-402.41 1801.2,-424.38 1636.19,-396 1631.15,-395.13 1625.93,-394.09 1620.73,-392.96"/>
<polygon fill="black" stroke="black" points="1621.32,-389.5 1610.79,-390.68 1619.76,-396.33 1621.32,-389.5"/>
</g>
<!-- n8&#45;&gt;n63 -->
<g id="edge206" class="edge">
<title>n8&#45;&gt;n63</title>
<path fill="none" stroke="black" d="M2098.67,-434.83C2116.04,-424.35 2139.92,-409.94 2159.06,-398.39"/>
<polygon fill="black" stroke="black" points="2161,-401.31 2167.76,-393.14 2157.39,-395.31 2161,-401.31"/>
</g>
<!-- n8&#45;&gt;n34 -->
<g id="edge211" class="edge">
<title>n8&#45;&gt;n34</title>
<path fill="none" stroke="black" d="M2040.51,-438.91C2031.06,-436.4 2020.78,-433.89 2011.19,-432 1889.39,-408.01 1855.03,-424.5 1734.19,-396 1730.85,-395.21 1727.42,-394.28 1723.99,-393.27"/>
<polygon fill="black" stroke="black" points="1725.04,-389.93 1714.45,-390.24 1722.92,-396.6 1725.04,-389.93"/>
</g>
<!-- n7 -->
<g id="node70" class="node">
<title>n7</title>
<ellipse fill="none" stroke="green" cx="2185.19" cy="-450" rx="36.29" ry="18"/>
<text text-anchor="middle" x="2185.19" y="-446.3" font-family="Times,serif" font-size="14.00">zlib.h</text>
</g>
<!-- n7&#45;&gt;n55 -->
<g id="edge3" class="edge">
<title>n7&#45;&gt;n55</title>
<path fill="none" stroke="black" d="M2219.13,-443.31C2241.08,-439.75 2270.27,-435.25 2296.19,-432 2459.7,-411.52 2502.92,-424.64 2665.19,-396 2669.97,-395.16 2674.9,-394.15 2679.83,-393.05"/>
<polygon fill="black" stroke="black" points="2680.93,-396.39 2689.86,-390.69 2679.33,-389.57 2680.93,-396.39"/>
</g>
<!-- n7&#45;&gt;n10 -->
<g id="edge7" class="edge">
<title>n7&#45;&gt;n10</title>
<path fill="none" stroke="black" d="M2219.69,-443.68C2241.6,-440.31 2270.56,-435.87 2296.19,-432 2403.72,-415.77 2431.75,-418.2 2538.19,-396 2542.55,-395.09 2547.06,-394.06 2551.57,-392.97"/>
<polygon fill="black" stroke="black" points="2552.53,-396.33 2561.37,-390.49 2550.82,-389.55 2552.53,-396.33"/>
</g>
<!-- n7&#45;&gt;n64 -->
<g id="edge16" class="edge">
<title>n7&#45;&gt;n64</title>
<path fill="none" stroke="black" d="M2155.08,-439.79C2146.42,-437.21 2136.95,-434.44 2128.19,-432 2078.46,-418.16 2021.61,-403.56 1980.41,-393.19"/>
<polygon fill="black" stroke="black" points="1981.1,-389.76 1970.55,-390.72 1979.4,-396.55 1981.1,-389.76"/>
</g>
<!-- n7&#45;&gt;n37 -->
<g id="edge19" class="edge">
<title>n7&#45;&gt;n37</title>
<path fill="none" stroke="black" d="M2156.22,-438.94C2147.33,-436.24 2137.45,-433.62 2128.19,-432 1852.83,-383.72 1776.91,-435.85 1500.19,-396 1494.42,-395.17 1488.43,-394.11 1482.47,-392.92"/>
<polygon fill="black" stroke="black" points="1483.03,-389.46 1472.53,-390.83 1481.59,-396.31 1483.03,-389.46"/>
</g>
<!-- n7&#45;&gt;n56 -->
<g id="edge23" class="edge">
<title>n7&#45;&gt;n56</title>
<path fill="none" stroke="black" d="M2155.85,-439.26C2147.03,-436.6 2137.29,-433.93 2128.19,-432 2005.45,-405.98 1970.94,-422.02 1848.19,-396 1844.27,-395.17 1840.23,-394.2 1836.19,-393.15"/>
<polygon fill="black" stroke="black" points="1836.81,-389.69 1826.24,-390.42 1834.95,-396.44 1836.81,-389.69"/>
</g>
<!-- n7&#45;&gt;n13 -->
<g id="edge28" class="edge">
<title>n7&#45;&gt;n13</title>
<path fill="none" stroke="black" d="M2156.23,-438.88C2147.34,-436.18 2137.46,-433.57 2128.19,-432 1788.68,-374.36 1693.26,-456.21 1354.19,-396 1350.28,-395.3 1346.25,-394.4 1342.25,-393.38"/>
<polygon fill="black" stroke="black" points="1342.98,-389.95 1332.41,-390.63 1341.1,-396.69 1342.98,-389.95"/>
</g>
<!-- n7&#45;&gt;n57 -->
<g id="edge33" class="edge">
<title>n7&#45;&gt;n57</title>
<path fill="none" stroke="black" d="M2219.09,-442.96C2241.02,-439.26 2270.21,-434.74 2296.19,-432 2571.58,-403.01 2644.86,-440.3 2918.19,-396 2922.98,-395.23 2927.92,-394.23 2932.83,-393.12"/>
<polygon fill="black" stroke="black" points="2933.93,-396.46 2942.82,-390.7 2932.28,-389.66 2933.93,-396.46"/>
</g>
<!-- n7&#45;&gt;n16 -->
<g id="edge38" class="edge">
<title>n7&#45;&gt;n16</title>
<path fill="none" stroke="black" d="M2219.11,-443.08C2241.04,-439.44 2270.23,-434.91 2296.19,-432 2518.48,-407.05 2577.88,-434.69 2798.19,-396 2802.63,-395.22 2807.22,-394.25 2811.78,-393.16"/>
<polygon fill="black" stroke="black" points="2812.84,-396.5 2821.66,-390.63 2811.11,-389.72 2812.84,-396.5"/>
</g>
<!-- n7&#45;&gt;n5 -->
<g id="edge44" class="edge">
<title>n7&#45;&gt;n5</title>
<path fill="none" stroke="black" d="M2156.53,-438.9C2147.57,-436.16 2137.57,-433.53 2128.19,-432 1672.21,-357.36 1546.51,-462.02 1089.19,-396 1084.13,-395.27 1078.89,-394.3 1073.68,-393.19"/>
<polygon fill="black" stroke="black" points="1074.28,-389.74 1063.75,-390.92 1072.72,-396.56 1074.28,-389.74"/>
</g>
<!-- n7&#45;&gt;n73 -->
<g id="edge49" class="edge">
<title>n7&#45;&gt;n73</title>
<path fill="none" stroke="black" d="M2156.23,-438.84C2147.35,-436.14 2137.46,-433.55 2128.19,-432 1741.22,-367.44 1635.33,-445.96 1246.19,-396 1239.88,-395.19 1233.32,-394.12 1226.81,-392.92"/>
<polygon fill="black" stroke="black" points="1227.14,-389.41 1216.65,-390.93 1225.79,-396.28 1227.14,-389.41"/>
</g>
<!-- n7&#45;&gt;n66 -->
<g id="edge55" class="edge">
<title>n7&#45;&gt;n66</title>
<path fill="none" stroke="black" d="M2156.54,-438.83C2147.58,-436.09 2137.58,-433.48 2128.19,-432 1771.82,-375.95 862.47,-445.98 505.19,-396 500.06,-395.28 494.74,-394.3 489.46,-393.17"/>
<polygon fill="black" stroke="black" points="489.96,-389.69 479.43,-390.83 488.37,-396.51 489.96,-389.69"/>
</g>
<!-- n7&#45;&gt;n41 -->
<g id="edge59" class="edge">
<title>n7&#45;&gt;n41</title>
<path fill="none" stroke="black" d="M2156.54,-438.84C2147.58,-436.1 2137.58,-433.48 2128.19,-432 1469.97,-327.85 1288.54,-492.83 629.19,-396 624.41,-395.3 619.47,-394.34 614.56,-393.25"/>
<polygon fill="black" stroke="black" points="615.13,-389.79 604.59,-390.83 613.48,-396.59 615.13,-389.79"/>
</g>
<!-- n7&#45;&gt;n67 -->
<g id="edge63" class="edge">
<title>n7&#45;&gt;n67</title>
<path fill="none" stroke="black" d="M2156.54,-438.86C2147.58,-436.12 2137.58,-433.5 2128.19,-432 1569.34,-342.35 1413.1,-491.38 855.19,-396 851.34,-395.34 847.38,-394.47 843.44,-393.46"/>
<polygon fill="black" stroke="black" points="844.36,-390.08 833.78,-390.73 842.46,-396.82 844.36,-390.08"/>
</g>
<!-- n7&#45;&gt;n43 -->
<g id="edge67" class="edge">
<title>n7&#45;&gt;n43</title>
<path fill="none" stroke="black" d="M2156.54,-438.88C2147.57,-436.14 2137.57,-433.52 2128.19,-432 1613.74,-348.83 1468.98,-488.9 956.19,-396 952.75,-395.38 949.23,-394.56 945.72,-393.62"/>
<polygon fill="black" stroke="black" points="946.54,-390.22 935.95,-390.73 944.54,-396.93 946.54,-390.22"/>
</g>
<!-- n7&#45;&gt;n68 -->
<g id="edge71" class="edge">
<title>n7&#45;&gt;n68</title>
<path fill="none" stroke="black" d="M2156.54,-438.82C2147.58,-436.08 2137.58,-433.47 2128.19,-432 1743.24,-371.77 760.91,-451.16 375.19,-396 370.21,-395.29 365.05,-394.31 359.93,-393.18"/>
<polygon fill="black" stroke="black" points="360.74,-389.77 350.2,-390.85 359.11,-396.58 360.74,-389.77"/>
</g>
<!-- n7&#45;&gt;n45 -->
<g id="edge75" class="edge">
<title>n7&#45;&gt;n45</title>
<path fill="none" stroke="black" d="M2156.54,-438.85C2147.58,-436.11 2137.58,-433.49 2128.19,-432 1522.73,-335.55 1355.31,-488.29 749.19,-396 744.49,-395.28 739.64,-394.31 734.82,-393.2"/>
<polygon fill="black" stroke="black" points="735.6,-389.78 725.04,-390.73 733.88,-396.57 735.6,-389.78"/>
</g>
<!-- n7&#45;&gt;n69 -->
<g id="edge79" class="edge">
<title>n7&#45;&gt;n69</title>
<path fill="none" stroke="black" d="M2156.55,-438.8C2147.59,-436.06 2137.58,-433.46 2128.19,-432 1687.83,-363.69 564.77,-455.99 123.19,-396 118.05,-395.3 112.73,-394.34 107.45,-393.23"/>
<polygon fill="black" stroke="black" points="107.91,-389.75 97.39,-390.94 106.36,-396.58 107.91,-389.75"/>
</g>
<!-- n7&#45;&gt;n47 -->
<g id="edge83" class="edge">
<title>n7&#45;&gt;n47</title>
<path fill="none" stroke="black" d="M2156.55,-438.81C2147.58,-436.07 2137.58,-433.46 2128.19,-432 1715.54,-367.73 662.66,-454.84 249.19,-396 244.21,-395.29 239.05,-394.31 233.93,-393.18"/>
<polygon fill="black" stroke="black" points="234.74,-389.78 224.2,-390.86 233.11,-396.59 234.74,-389.78"/>
</g>
<!-- n7&#45;&gt;n58 -->
<g id="edge90" class="edge">
<title>n7&#45;&gt;n58</title>
<path fill="none" stroke="black" d="M2218.57,-442.71C2240.54,-438.86 2269.97,-434.26 2296.19,-432 2698.34,-397.37 3712.39,-451.45 4112.19,-396 4117.33,-395.29 4122.65,-394.31 4127.93,-393.18"/>
<polygon fill="black" stroke="black" points="4129.02,-396.52 4137.97,-390.85 4127.43,-389.7 4129.02,-396.52"/>
</g>
<!-- n7&#45;&gt;n19 -->
<g id="edge98" class="edge">
<title>n7&#45;&gt;n19</title>
<path fill="none" stroke="black" d="M2218.57,-442.72C2240.54,-438.88 2269.97,-434.28 2296.19,-432 2670.87,-399.46 3616.03,-450.13 3988.19,-396 3992.98,-395.3 3997.93,-394.36 4002.84,-393.26"/>
<polygon fill="black" stroke="black" points="4003.91,-396.6 4012.8,-390.84 4002.26,-389.8 4003.91,-396.6"/>
</g>
<!-- n7&#45;&gt;n59 -->
<g id="edge105" class="edge">
<title>n7&#45;&gt;n59</title>
<path fill="none" stroke="black" d="M2218.58,-442.77C2240.55,-438.95 2269.98,-434.35 2296.19,-432 2592.45,-405.43 3340.16,-440.89 3634.19,-396 3638.71,-395.31 3643.37,-394.39 3648,-393.32"/>
<polygon fill="black" stroke="black" points="3649.18,-396.64 3658.03,-390.81 3647.48,-389.85 3649.18,-396.64"/>
</g>
<!-- n7&#45;&gt;n25 -->
<g id="edge112" class="edge">
<title>n7&#45;&gt;n25</title>
<path fill="none" stroke="black" d="M2218.58,-442.79C2240.55,-438.98 2269.98,-434.38 2296.19,-432 2567.19,-407.36 3251.54,-439.25 3520.19,-396 3524.38,-395.33 3528.69,-394.43 3532.98,-393.4"/>
<polygon fill="black" stroke="black" points="3534.08,-396.73 3542.87,-390.8 3532.3,-389.96 3534.08,-396.73"/>
</g>
<!-- n7&#45;&gt;n60 -->
<g id="edge120" class="edge">
<title>n7&#45;&gt;n60</title>
<path fill="none" stroke="black" d="M2218.57,-442.74C2240.54,-438.9 2269.98,-434.3 2296.19,-432 2644.29,-401.49 3522.67,-448.04 3868.19,-396 3872.71,-395.32 3877.37,-394.4 3882,-393.34"/>
<polygon fill="black" stroke="black" points="3883.18,-396.66 3892.03,-390.84 3881.48,-389.87 3883.18,-396.66"/>
</g>
<!-- n7&#45;&gt;n27 -->
<g id="edge128" class="edge">
<title>n7&#45;&gt;n27</title>
<path fill="none" stroke="black" d="M2218.58,-442.75C2240.54,-438.92 2269.98,-434.32 2296.19,-432 2619.03,-403.41 3434.1,-446.76 3754.19,-396 3758.44,-395.33 3762.81,-394.42 3767.16,-393.38"/>
<polygon fill="black" stroke="black" points="3768.39,-396.68 3777.17,-390.75 3766.61,-389.91 3768.39,-396.68"/>
</g>
<!-- n7&#45;&gt;n61 -->
<g id="edge133" class="edge">
<title>n7&#45;&gt;n61</title>
<path fill="none" stroke="black" d="M2218.58,-442.83C2240.55,-439.03 2269.99,-434.43 2296.19,-432 2778.83,-387.23 2906.28,-464 3386.19,-396 3391.54,-395.24 3397.08,-394.23 3402.57,-393.06"/>
<polygon fill="black" stroke="black" points="3403.39,-396.47 3412.37,-390.84 3401.85,-389.64 3403.39,-396.47"/>
</g>
<!-- n7&#45;&gt;n29 -->
<g id="edge138" class="edge">
<title>n7&#45;&gt;n29</title>
<path fill="none" stroke="black" d="M2219.08,-442.78C2240.99,-439.01 2270.19,-434.47 2296.19,-432 2722.13,-391.55 2835.05,-459.31 3258.19,-396 3263.18,-395.25 3268.34,-394.26 3273.47,-393.14"/>
<polygon fill="black" stroke="black" points="3274.3,-396.54 3283.22,-390.82 3272.68,-389.72 3274.3,-396.54"/>
</g>
<!-- n7&#45;&gt;n50 -->
<g id="edge175" class="edge">
<title>n7&#45;&gt;n50</title>
<path fill="none" stroke="black" d="M2208.41,-436C2226.95,-425.62 2253.23,-410.9 2274.45,-399.02"/>
<polygon fill="black" stroke="black" points="2276.17,-402.06 2283.19,-394.12 2272.75,-395.96 2276.17,-402.06"/>
</g>
<!-- n7&#45;&gt;n75 -->
<g id="edge180" class="edge">
<title>n7&#45;&gt;n75</title>
<path fill="none" stroke="black" d="M2216.78,-440.9C2261.53,-429.43 2344.17,-408.24 2400.16,-393.88"/>
<polygon fill="black" stroke="black" points="2401.12,-397.25 2409.94,-391.37 2399.38,-390.47 2401.12,-397.25"/>
</g>
<!-- n7&#45;&gt;n62 -->
<g id="edge191" class="edge">
<title>n7&#45;&gt;n62</title>
<path fill="none" stroke="black" d="M2219.08,-442.82C2241,-439.07 2270.19,-434.53 2296.19,-432 2673.41,-395.26 2774.72,-460.5 3148.19,-396 3152.13,-395.32 3156.17,-394.44 3160.19,-393.44"/>
<polygon fill="black" stroke="black" points="3161.36,-396.75 3170.08,-390.74 3159.51,-390 3161.36,-396.75"/>
</g>
<!-- n7&#45;&gt;n31 -->
<g id="edge197" class="edge">
<title>n7&#45;&gt;n31</title>
<path fill="none" stroke="black" d="M2219.09,-442.87C2241.01,-439.14 2270.2,-434.61 2296.19,-432 2627.36,-398.76 2716.86,-456.25 3044.19,-396 3047.87,-395.32 3051.64,-394.45 3055.39,-393.47"/>
<polygon fill="black" stroke="black" points="3056.57,-396.77 3065.2,-390.63 3054.62,-390.05 3056.57,-396.77"/>
</g>
<!-- n7&#45;&gt;n65 -->
<g id="edge201" class="edge">
<title>n7&#45;&gt;n65</title>
<path fill="none" stroke="black" d="M2163.1,-435.67C2146.31,-425.53 2122.88,-411.4 2103.63,-399.78"/>
<polygon fill="black" stroke="black" points="2105.21,-396.65 2094.84,-394.48 2101.6,-402.64 2105.21,-396.65"/>
</g>
<!-- n7&#45;&gt;n39 -->
<g id="edge204" class="edge">
<title>n7&#45;&gt;n39</title>
<path fill="none" stroke="black" d="M2156.2,-439.03C2147.31,-436.33 2137.44,-433.7 2128.19,-432 1912.54,-392.44 1852.68,-430.72 1636.19,-396 1631.07,-395.18 1625.76,-394.16 1620.48,-393.03"/>
<polygon fill="black" stroke="black" points="1620.93,-389.54 1610.4,-390.75 1619.38,-396.37 1620.93,-389.54"/>
</g>
<!-- n7&#45;&gt;n63 -->
<g id="edge207" class="edge">
<title>n7&#45;&gt;n63</title>
<path fill="none" stroke="black" d="M2186.68,-431.7C2187.34,-423.98 2188.13,-414.71 2188.87,-406.11"/>
<polygon fill="black" stroke="black" points="2192.36,-406.37 2189.73,-396.1 2185.39,-405.77 2192.36,-406.37"/>
</g>
<!-- n7&#45;&gt;n34 -->
<g id="edge212" class="edge">
<title>n7&#45;&gt;n34</title>
<path fill="none" stroke="black" d="M2155.89,-439.05C2147.07,-436.38 2137.32,-433.76 2128.19,-432 1955.53,-398.71 1906.08,-433.09 1734.19,-396 1730.79,-395.27 1727.3,-394.36 1723.82,-393.37"/>
<polygon fill="black" stroke="black" points="1724.73,-389.98 1714.14,-390.34 1722.64,-396.66 1724.73,-389.98"/>
</g>
<!-- n35 -->
<g id="node71" class="node">
<title>n35</title>
<ellipse fill="none" stroke="green" cx="1963.19" cy="-450" rx="38.99" ry="18"/>
<text text-anchor="middle" x="1963.19" y="-446.3" font-family="Times,serif" font-size="14.00">zutil.c</text>
</g>
<!-- n35&#45;&gt;n63 -->
<g id="edge208" class="edge">
<title>n35&#45;&gt;n63</title>
<path fill="none" stroke="black" d="M1995.26,-439.72C2030.79,-429.36 2089.73,-411.96 2140.19,-396 2143.26,-395.03 2146.43,-394.01 2149.62,-392.98"/>
<polygon fill="black" stroke="black" points="2150.73,-396.29 2159.14,-389.85 2148.55,-389.64 2150.73,-396.29"/>
</g>
<!-- n35&#45;&gt;n34 -->
<g id="edge213" class="edge">
<title>n35&#45;&gt;n34</title>
<path fill="none" stroke="black" d="M1929.4,-440.68C1917.92,-437.88 1905.01,-434.77 1893.19,-432 1822.66,-415.45 1803.86,-415.91 1734.19,-396 1731.08,-395.11 1727.87,-394.13 1724.65,-393.11"/>
<polygon fill="black" stroke="black" points="1725.68,-389.77 1715.09,-389.96 1723.49,-396.41 1725.68,-389.77"/>
</g>
<!-- n12 -->
<g id="node72" class="node">
<title>n12</title>
<ellipse fill="none" stroke="green" cx="3197.19" cy="-450" rx="40.09" ry="18"/>
<text text-anchor="middle" x="3197.19" y="-446.3" font-family="Times,serif" font-size="14.00">zutil.h</text>
</g>
<!-- n12&#45;&gt;n55 -->
<g id="edge4" class="edge">
<title>n12&#45;&gt;n55</title>
<path fill="none" stroke="black" d="M3167.71,-437.54C3161.35,-435.42 3154.61,-433.42 3148.19,-432 2995.53,-398.15 2952.17,-423.3 2798.19,-396 2793.15,-395.11 2787.93,-394.04 2782.73,-392.88"/>
<polygon fill="black" stroke="black" points="2783.34,-389.43 2772.81,-390.56 2781.75,-396.24 2783.34,-389.43"/>
</g>
<!-- n12&#45;&gt;n10 -->
<g id="edge8" class="edge">
<title>n12&#45;&gt;n10</title>
<path fill="none" stroke="black" d="M3168,-437.49C3161.57,-435.34 3154.72,-433.35 3148.19,-432 2936.97,-388.28 2876.83,-432.26 2664.19,-396 2659.55,-395.21 2654.76,-394.23 2649.98,-393.14"/>
<polygon fill="black" stroke="black" points="2650.8,-389.73 2640.26,-390.77 2649.15,-396.53 2650.8,-389.73"/>
</g>
<!-- n12&#45;&gt;n56 -->
<g id="edge24" class="edge">
<title>n12&#45;&gt;n56</title>
<path fill="none" stroke="black" d="M3168.31,-437.34C3161.79,-435.18 3154.84,-433.21 3148.19,-432 2863.91,-380.03 2133.56,-441.69 1848.19,-396 1843.95,-395.32 1839.58,-394.41 1835.24,-393.37"/>
<polygon fill="black" stroke="black" points="1835.78,-389.89 1825.22,-390.73 1834,-396.66 1835.78,-389.89"/>
</g>
<!-- n12&#45;&gt;n13 -->
<g id="edge29" class="edge">
<title>n12&#45;&gt;n13</title>
<path fill="none" stroke="black" d="M3168.32,-437.31C3161.8,-435.14 3154.84,-433.19 3148.19,-432 2755.68,-361.79 1747.69,-460.52 1354.19,-396 1350.22,-395.35 1346.13,-394.47 1342.06,-393.45"/>
<polygon fill="black" stroke="black" points="1342.67,-389.99 1332.1,-390.69 1340.8,-396.73 1342.67,-389.99"/>
</g>
<!-- n12&#45;&gt;n57 -->
<g id="edge34" class="edge">
<title>n12&#45;&gt;n57</title>
<path fill="none" stroke="black" d="M3166.39,-438.17C3160.37,-436.1 3154.09,-433.96 3148.19,-432 3108.3,-418.75 3062.81,-404.36 3029.39,-393.92"/>
<polygon fill="black" stroke="black" points="3030.01,-390.45 3019.43,-390.82 3027.93,-397.13 3030.01,-390.45"/>
</g>
<!-- n12&#45;&gt;n16 -->
<g id="edge39" class="edge">
<title>n12&#45;&gt;n16</title>
<path fill="none" stroke="black" d="M3167.39,-437.71C3161.11,-435.6 3154.49,-433.57 3148.19,-432 3047.81,-406.94 3019.26,-418.14 2918.19,-396 2914.03,-395.09 2909.73,-394.05 2905.43,-392.96"/>
<polygon fill="black" stroke="black" points="2906.03,-389.5 2895.47,-390.31 2904.23,-396.26 2906.03,-389.5"/>
</g>
<!-- n12&#45;&gt;n58 -->
<g id="edge91" class="edge">
<title>n12&#45;&gt;n58</title>
<path fill="none" stroke="black" d="M3226.43,-437.5C3233.16,-435.3 3240.35,-433.28 3247.19,-432 3625.43,-361.35 3731.66,-453.01 4112.19,-396 4117.26,-395.24 4122.49,-394.24 4127.69,-393.11"/>
<polygon fill="black" stroke="black" points="4128.66,-396.48 4137.6,-390.79 4127.07,-389.66 4128.66,-396.48"/>
</g>
<!-- n12&#45;&gt;n19 -->
<g id="edge99" class="edge">
<title>n12&#45;&gt;n19</title>
<path fill="none" stroke="black" d="M3226.44,-437.54C3233.16,-435.33 3240.35,-433.3 3247.19,-432 3571.1,-370.33 3662.58,-447.91 3988.19,-396 3992.97,-395.24 3997.91,-394.25 4002.81,-393.13"/>
<polygon fill="black" stroke="black" points="4003.9,-396.46 4012.78,-390.68 4002.23,-389.67 4003.9,-396.46"/>
</g>
<!-- n12&#45;&gt;n59 -->
<g id="edge106" class="edge">
<title>n12&#45;&gt;n59</title>
<path fill="none" stroke="black" d="M3226.75,-437.67C3233.39,-435.49 3240.47,-433.44 3247.19,-432 3416.13,-395.95 3464.38,-427.68 3634.19,-396 3638.56,-395.19 3643.07,-394.19 3647.57,-393.11"/>
<polygon fill="black" stroke="black" points="3648.51,-396.48 3657.32,-390.59 3646.76,-389.7 3648.51,-396.48"/>
</g>
<!-- n12&#45;&gt;n25 -->
<g id="edge113" class="edge">
<title>n12&#45;&gt;n25</title>
<path fill="none" stroke="black" d="M3227.06,-437.78C3233.62,-435.61 3240.59,-433.54 3247.19,-432 3366.37,-404.17 3400.51,-421.57 3520.19,-396 3524.12,-395.16 3528.16,-394.19 3532.2,-393.14"/>
<polygon fill="black" stroke="black" points="3533.43,-396.43 3542.15,-390.4 3531.58,-389.68 3533.43,-396.43"/>
</g>
<!-- n12&#45;&gt;n60 -->
<g id="edge121" class="edge">
<title>n12&#45;&gt;n60</title>
<path fill="none" stroke="black" d="M3226.45,-437.59C3233.17,-435.38 3240.36,-433.34 3247.19,-432 3518.53,-379.02 3595.58,-441.96 3868.19,-396 3872.64,-395.25 3877.22,-394.3 3881.79,-393.22"/>
<polygon fill="black" stroke="black" points="3882.84,-396.56 3891.68,-390.71 3881.12,-389.78 3882.84,-396.56"/>
</g>
<!-- n12&#45;&gt;n27 -->
<g id="edge129" class="edge">
<title>n12&#45;&gt;n27</title>
<path fill="none" stroke="black" d="M3226.73,-437.56C3233.37,-435.38 3240.45,-433.36 3247.19,-432 3468.62,-387.27 3531.96,-436.52 3754.19,-396 3758.31,-395.25 3762.55,-394.31 3766.77,-393.26"/>
<polygon fill="black" stroke="black" points="3767.77,-396.62 3776.52,-390.66 3765.96,-389.86 3767.77,-396.62"/>
</g>
<!-- n12&#45;&gt;n61 -->
<g id="edge134" class="edge">
<title>n12&#45;&gt;n61</title>
<path fill="none" stroke="black" d="M3227.75,-438.2C3234.15,-436.06 3240.87,-433.89 3247.19,-432 3254.64,-429.78 3341.29,-407.58 3399.82,-392.63"/>
<polygon fill="black" stroke="black" points="3400.85,-395.98 3409.67,-390.11 3399.11,-389.19 3400.85,-395.98"/>
</g>
<!-- n12&#45;&gt;n29 -->
<g id="edge139" class="edge">
<title>n12&#45;&gt;n29</title>
<path fill="none" stroke="black" d="M3221.3,-435.5C3239.84,-425.12 3265.74,-410.62 3286.65,-398.9"/>
<polygon fill="black" stroke="black" points="3288.56,-401.85 3295.57,-393.91 3285.14,-395.74 3288.56,-401.85"/>
</g>
<!-- n12&#45;&gt;n62 -->
<g id="edge192" class="edge">
<title>n12&#45;&gt;n62</title>
<path fill="none" stroke="black" d="M3198.68,-431.7C3199.34,-423.98 3200.13,-414.71 3200.87,-406.11"/>
<polygon fill="black" stroke="black" points="3204.36,-406.37 3201.73,-396.1 3197.39,-405.77 3204.36,-406.37"/>
</g>
<!-- n12&#45;&gt;n31 -->
<g id="edge198" class="edge">
<title>n12&#45;&gt;n31</title>
<path fill="none" stroke="black" d="M3176.27,-434.5C3161.74,-424.43 3142.17,-410.86 3126.01,-399.67"/>
<polygon fill="black" stroke="black" points="3127.66,-396.55 3117.44,-393.73 3123.67,-402.3 3127.66,-396.55"/>
</g>
<!-- n12&#45;&gt;n63 -->
<g id="edge209" class="edge">
<title>n12&#45;&gt;n63</title>
<path fill="none" stroke="black" d="M3168.3,-437.4C3161.78,-435.23 3154.83,-433.25 3148.19,-432 2752.22,-357.15 2638.62,-468.44 2242.19,-396 2238.59,-395.34 2234.88,-394.48 2231.2,-393.5"/>
<polygon fill="black" stroke="black" points="2232.15,-390.14 2221.57,-390.68 2230.18,-396.85 2232.15,-390.14"/>
</g>
<!-- n12&#45;&gt;n34 -->
<g id="edge214" class="edge">
<title>n12&#45;&gt;n34</title>
<path fill="none" stroke="black" d="M3168.31,-437.33C3161.8,-435.17 3154.84,-433.21 3148.19,-432 2838.93,-375.82 2043.46,-452.18 1734.19,-396 1730.72,-395.37 1727.17,-394.53 1723.63,-393.57"/>
<polygon fill="black" stroke="black" points="1724.4,-390.15 1713.82,-390.58 1722.36,-396.84 1724.4,-390.15"/>
</g>
<!-- n63&#45;&gt;n54 -->
<g id="edge170" class="edge">
<title>n63&#45;&gt;n54</title>
<path fill="none" stroke="black" d="M2181.51,-360.43C2167.23,-336.01 2140.4,-290.1 2123.46,-261.11"/>
<polygon fill="black" stroke="black" points="2126.4,-259.21 2118.33,-252.35 2120.36,-262.75 2126.4,-259.21"/>
</g>
<!-- n34&#45;&gt;n9 -->
<g id="edge154" class="edge">
<title>n34&#45;&gt;n9</title>
<path fill="none" stroke="black" d="M1694.44,-360.41C1699.1,-352.04 1704.86,-341.71 1710.06,-332.37"/>
<polygon fill="black" stroke="black" points="1713.21,-333.91 1715.02,-323.47 1707.09,-330.5 1713.21,-333.91"/>
</g>
</g>
</svg>
